<?xml version="1.0" encoding="UTF-8"?>
<svg width="344px" height="397px" viewBox="0 0 344 397" version="1.1" xmlns="http://www.w3.org/2000/svg">
    <!-- Generator: Sketch 42 (36781) - http://www.bohemiancoding.com/sketch -->
    <title>twiggle illustration copy 2</title>
    <desc>Created with Sketch.</desc>
    <defs>
        <linearGradient x1="86.7536382%" y1="-6.02834285%" x2="-7.10226337%" y2="90.8186232%" id="linearGradient-1">
            <stop stop-color="#F79A31" offset="0%"></stop>
            <stop stop-color="#E70042" offset="100%"></stop>
        </linearGradient>
    </defs>
    <g id="Page-1" stroke="none" stroke-width="1" fill="none" fill-rule="evenodd">
        <g id="Landing-Page-" transform="translate(0.000000, -2177.000000)" fill="url(#linearGradient-1)">
            <g id="twiggle-illustration-copy-2"
               transform="translate(-176.529375, 2205.507528) scale(-1, 1) rotate(197.000000) translate(176.529375, -2205.507528) translate(-616.529375, 1779.007528)">
                <g id="Isolation_Mode" transform="translate(0.000000, 0.000000)">
                    <path d="M19.5108814,852.666755 C19.1805402,852.665637 18.8504658,852.647843 18.5219178,852.613442 C9.82259073,851.730824 6.73133905,837.685942 5.06727445,830.145185 C4.93699181,829.552824 4.81855305,829.007852 4.71195816,828.539887 C-0.961258529,804.075373 -1.50607683,775.606498 3.04789356,741.510192 C11.036588,681.68172 34.1558343,623.114977 70.3092664,570.673248 C83.3375302,479.017213 96.9579878,396.35322 126.502537,317.08938 C141.254085,277.525581 159.66539,241.592956 181.197557,210.286672 C204.512227,176.397692 232.126225,147.022505 263.287463,122.972644 C296.450316,97.3589493 336.162833,75.3941993 381.258392,57.6944493 C419.674004,42.6366299 463.342375,30.1318868 511.031743,20.6126438 C613.202941,0.21172712 694.244663,-4.85888399 766.089616,4.5715049 C783.742914,6.89356045 806.418015,10.6135882 825.308997,18.8355605 C846.183829,27.9283035 857.832281,40.5989077 860.02932,56.5748868 C874.200518,66.7694216 880.756104,80.2693313 879.530262,96.7962063 C876.859468,133.019088 845.183021,166.315706 819.718688,193.078581 C816.929455,196.010769 814.294192,198.783019 811.765525,201.484185 C780.331877,235.088831 747.435511,268.32029 715.616938,300.449956 C681.382214,335.026074 645.98679,370.775067 612.34426,407.074956 C584.392712,437.226137 556.737261,468.621276 529.993789,498.973859 C498.394327,534.799859 465.746682,571.85797 432.382483,607.156769 C430.102537,609.567679 427.390289,612.535408 424.251662,615.971102 C411.584636,629.826429 392.444933,650.76047 372.073466,667.417665 C347.017746,687.901512 326.930532,696.561831 310.66889,693.896206 C302.810478,692.610783 296.018015,688.612345 290.362564,681.96013 C281.171716,693.416394 271.856507,704.801574 262.440626,715.973505 C260.989751,717.691352 259.254623,719.889012 257.247086,722.430241 C245.349912,737.476213 226.109536,761.79856 208.095,761.79856 C206.43368,761.802006 204.77912,761.586912 203.173869,761.15881 C180.56391,755.10488 179.166332,711.797359 178.414246,688.535338 C178.319495,685.537991 178.236588,682.949373 178.118149,680.899804 C173.433896,599.331679 179.468351,517.674699 195.576023,444.03829 C156.899845,476.914331 120.977369,512.420456 89.9049595,552.002026 C84.6462785,558.715452 79.6146051,565.531554 74.8099393,572.450331 C74.4625189,574.906655 74.1150986,577.372852 73.7676782,579.848922 C70.2145154,604.905797 67.7095355,631.20663 65.2578532,656.642616 C59.6971533,714.356359 53.9469514,774.030817 36.192981,828.391797 C35.9679474,829.084859 35.7133041,829.937859 35.429051,830.89156 C33.131339,838.580408 28.9030753,852.666755 19.5108814,852.666755 Z M68.7932502,581.412755 C36.1692933,631.171088 15.2233983,686.09481 7.74399046,742.138095 C3.26700527,775.65981 3.78813582,803.571866 9.32514793,827.467713 C9.43766476,827.947526 9.56202546,828.504345 9.69230809,829.120401 C10.7937886,834.108081 13.7133041,847.359199 18.9956728,847.898248 C25.2314736,848.543922 29.0629676,835.695609 30.9046903,829.535054 C31.2007872,828.539887 31.4968841,827.651345 31.704152,826.922741 C49.29823,773.059345 55.0247442,713.645526 60.5617563,656.192422 C62.9186876,631.443574 65.3822139,605.900963 68.7636405,581.418679 L68.7932502,581.412755 Z M201.545336,438.973602 C184.513842,513.753269 178.041164,597.228797 182.832012,680.61547 C182.950451,682.730199 183.03928,685.354359 183.134031,688.369477 C183.791366,708.835554 185.165256,751.426317 204.381945,756.568012 C220.720572,760.94556 242.057315,733.969435 253.534031,719.474359 C255.571178,716.903512 257.324071,714.682158 258.822322,712.905074 C268.463237,701.472505 277.991635,689.802991 287.401595,678.074241 C285.137296,674.741165 283.190331,671.203114 281.586252,667.506519 C272.703344,647.401783 269.185713,624.785435 268.19675,601.476026 C249.838741,578.53388 242.732416,538.86938 240.108997,506.698248 C238.676435,489.047082 238.198035,471.331401 238.675888,453.628616 C238.726117,443.117374 239.35281,432.616804 240.553143,422.174241 C241.042689,416.874584 241.621065,411.596646 242.28827,406.340429 C228.458571,416.963438 214.877593,427.841162 201.545336,438.973602 Z M293.382752,678.169019 C298.440087,684.37104 304.474542,688.073297 311.426898,689.21063 C345.720841,694.826213 396.400787,639.404908 420.751797,612.766429 C423.90819,609.318887 426.632281,606.33931 428.935915,603.881012 C462.246817,568.653297 494.870774,531.636651 526.428782,495.828422 C553.195942,465.452144 580.869159,434.039234 608.86216,403.840665 C642.552066,367.487463 677.983021,331.708852 712.241433,297.10904 C744.036319,264.997144 776.908997,231.795304 808.295269,198.238047 C810.835781,195.519109 813.476965,192.746859 816.27212,189.802824 C841.203479,163.590845 872.228513,130.969519 874.774946,96.4407896 C875.024428,93.2596299 874.915171,90.060489 874.449239,86.9037757 C871.496166,80.5339193 866.535556,75.3547086 859.567409,71.3661438 C854.906844,98.5199771 831.254623,123.345831 809.698768,143.320248 C808.988136,144.8051 808.224206,146.309697 807.406978,147.83404 C798.606978,164.301679 785.738607,179.400963 775.398903,191.538442 C774.178984,192.966033 773.030128,194.346234 771.887194,195.68497 C752.492846,218.63304 730.978445,240.218679 710.168755,261.08756 C703.453277,267.822706 696.506844,274.788873 689.74399,281.695804 C654.301191,317.859449 617.952335,354.325199 582.799711,389.588456 C558.697422,413.762713 533.777907,438.754429 509.367678,463.44404 C499.892577,473.010672 490.45893,482.956415 480.462698,493.488595 C442.135915,533.852081 399.213708,579.055158 350.310343,605.533699 C344.751617,612.642033 339.224475,619.722722 333.728916,626.775769 C320.552604,643.717297 307.092039,661.008317 293.382752,678.169019 Z M273.218553,607.050144 C274.503614,627.782783 278.033089,647.780894 285.903344,665.593192 C287.202552,668.575618 288.737241,671.449764 290.492846,674.188352 C303.906036,657.383067 317.082348,640.453387 330.009939,623.837658 L340.314112,610.60431 C338.0164,611.706102 335.70487,612.762479 333.379522,613.773442 C313.558795,622.410067 296.367409,622.510769 282.290962,614.08147 C279.004267,612.097836 275.959633,609.738175 273.218553,607.050144 L273.218553,607.050144 Z M272.857315,599.693019 C276.217394,603.770751 280.229524,607.263591 284.730801,610.02972 C297.421514,617.629713 313.156104,617.434234 331.514112,609.437359 C336.812272,607.127151 342.045291,604.583947 347.213169,601.807748 C367.406978,575.992651 388.163371,549.899144 409.630397,524.919276 C460.227436,466.038581 521.04574,397.176602 588.502537,332.875804 C624.034165,299.02829 661.81613,266.63206 698.366332,235.302081 C727.822052,210.055651 758.27858,183.950297 787.33753,157.258505 C789.836588,154.960144 792.465929,152.590699 795.249239,150.079088 C798.636588,147.022505 802.195673,143.811908 805.819899,140.465067 C813.435511,124.192908 814.430397,110.485672 808.887463,98.673991 C802.320034,84.6824216 787.12434,75.1039424 763.714919,70.2406577 C757.952234,69.0625376 752.133301,68.1787747 746.280733,67.5928035 C721.301999,71.8400327 697.969562,77.4141507 681.625013,81.3178105 C676.407786,82.5617688 671.901191,83.639866 668.318418,84.4395535 C640.57826,90.5892178 613.286655,98.6123746 586.631204,108.453873 C587.362228,109.097568 588.050626,109.788139 588.692039,110.521213 C594.839011,117.57031 595.253546,127.308727 589.911958,139.458054 C580.59675,160.658658 558.703344,178.607199 541.115188,193.031192 L537.869966,195.690894 C508.260276,220.078401 477.430666,242.084616 451.202402,260.400422 C428.758257,276.068373 405.36068,291.902185 382.727032,307.196949 C361.751527,321.413616 340.627974,335.677672 319.640626,350.243831 C310.503283,370.843003 302.786717,392.043826 296.545067,413.697554 C283.729103,458.114575 276.067011,503.859611 273.710074,550.029463 C272.857315,566.485255 272.235511,583.266845 272.851393,599.693019 L272.857315,599.693019 Z M798.790558,153.254144 L798.399711,153.603637 C795.628243,156.103401 793.004825,158.472845 790.517611,160.753435 C761.399441,187.49854 730.913304,213.633512 701.427974,238.903637 C664.919226,270.192151 627.166871,302.546915 591.747759,336.311498 C524.439011,400.464206 463.721379,469.21956 413.201326,528.011401 C394.322187,549.982074 375.970101,572.84129 358.074004,595.617574 C402.239818,568.961324 441.608863,527.496047 477.027974,490.212838 C487.041972,479.662887 496.499307,469.705297 505.998095,460.103123 C530.414246,435.413512 555.333762,410.415873 579.430128,386.235692 C614.57683,350.978359 650.919764,314.524456 686.344798,278.372658 C693.125417,271.45388 700.077772,264.48179 706.799172,257.734797 C727.525955,236.931074 748.981137,215.422442 768.251124,192.622463 C769.372344,191.295574 770.546862,189.913398 771.774677,188.475935 C780.331877,178.435415 790.63605,166.345324 798.790558,153.254144 L798.790558,153.254144 Z M243.360141,454.428304 C242.91614,471.738432 243.394521,489.059929 244.79325,506.319137 C248.423398,551.095713 257.714919,577.520942 267.888809,593.058574 C267.628243,578.664199 268.190828,564.09804 268.925148,549.768824 C271.300125,503.227747 279.023833,457.114898 291.943721,412.341047 C297.540575,392.973611 304.295864,373.960094 312.173062,355.403297 C290.664583,370.425574 269.315996,385.773651 248.441164,401.607463 C247.118598,408.640764 246.052649,415.681963 245.243318,422.73106 C244.299755,432.955213 243.685848,443.254398 243.401595,453.628616 L243.401595,454.102505 C243.395327,454.211933 243.381476,454.320794 243.360141,454.428304 Z M693.356373,4.72551879 C640.129993,4.72551879 580.881003,11.4902827 511.937799,25.2567549 C464.562295,34.7345327 421.148567,47.1208035 382.957988,62.1075396 C338.276965,79.6473521 298.978984,101.387005 266.147759,126.751908 C235.353681,150.499665 208.112766,179.519435 185.064583,213.005609 C163.745606,243.992019 145.523802,279.581074 130.908459,318.777609 C102.483156,394.961172 88.8626984,474.485651 76.272658,562.238026 C79.4823485,557.811114 82.7848159,553.43554 86.1800604,549.111304 C118.75072,507.598637 156.603748,470.593838 197.281541,436.396831 L197.701999,434.584206 C218.742645,344.148435 254.114381,269.68272 302.822322,213.23663 C356.996211,150.446352 430.14399,103.957852 526.369562,71.1765882 C569.706305,56.4149493 613.185175,45.7050605 655.592174,39.4260327 C702.736723,32.4124771 747.441433,31.0322757 788.456776,35.3150466 C813.672389,37.9510535 833.013439,42.5655466 847.599172,49.4250882 C849.991635,50.5505743 852.251842,51.7352966 854.379791,52.9792549 C850.968755,40.6936855 840.587597,30.7124007 823.372523,23.2131091 C805.044125,15.2280813 782.789482,11.5850605 765.444125,9.30447018 C741.540857,6.20269352 717.45988,4.67309083 693.356373,4.72551879 L693.356373,4.72551879 Z M740.370639,37.5956368 C712.218153,37.69796 684.111499,39.8758512 656.279118,44.1116091 C614.162295,50.3373243 570.961756,60.9642827 527.891501,75.6311438 C432.46539,108.133998 360.022322,154.148609 306.405094,216.30506 C258.976292,271.293942 224.309266,343.609387 203.32784,431.332144 C216.356104,420.535375 229.633089,409.997271 243.158795,399.717831 C250.081541,350.611095 264.602133,304.021894 286.10469,263.125283 C327.339145,184.720366 391.911958,131.064297 472.847086,107.95629 C480.208055,105.853408 496.102537,102.42956 513.678849,100.255595 C534.615526,92.1358911 556.025105,85.2934139 577.789751,79.7658243 C624.50792,67.8534424 666.322725,61.8765188 705.626628,61.4796368 C715.024744,61.3848591 730.244125,61.2308452 746.085309,62.8302202 C785.312227,56.2016993 828.506844,52.8785535 855.576023,64.2281924 C855.655594,62.5813737 855.6279,60.9311201 855.493116,59.2879007 C852.333151,57.1820872 849.017103,55.3206153 845.573869,53.7197063 C831.479657,47.0911855 812.630128,42.6129355 787.953412,40.0361646 C772.145466,38.3986472 756.263121,37.5840393 740.370639,37.5956368 L740.370639,37.5956368 Z M514.857315,104.834547 C453.269159,128.87256 399.545336,163.223581 357.250855,205.962435 C300.89177,262.92388 263.956642,328.279081 249.874273,394.629449 C271.495269,378.327672 293.584098,362.564942 315.809132,347.122088 C322.956448,331.081984 331.003347,315.458284 339.91142,300.32556 C361.040895,264.49956 386.611824,232.49429 415.919495,205.180519 C448.975754,174.377741 488.469159,147.721491 533.304152,125.975915 C547.09832,119.282234 561.289257,113.097984 575.876965,107.423165 C565.83928,103.324026 550.169832,101.926054 529.63255,103.377338 C524.6522,103.750526 519.695538,104.242185 514.857315,104.834547 Z M495.078042,107.855588 C486.011554,109.502352 478.538069,111.232047 474.149912,112.487852 C394.493923,135.228595 330.915996,188.07313 290.303344,265.317019 C276.682887,291.185429 265.928647,319.364047 258.135377,349.029491 C277.085579,297.399297 309.555565,247.433637 353.881272,202.63929 C392.456776,163.661929 440.388943,131.597422 495.078042,107.867435 L495.078042,107.855588 Z M581.413977,110.373123 C565.622142,116.395461 550.266557,123.022007 535.347221,130.252762 C490.932685,151.802859 451.847894,178.180699 419.123264,208.663602 C379.860814,245.253748 347.467813,290.474595 323.460276,341.796762 C342.309805,328.764817 361.242241,315.975741 380.056238,303.245901 C402.67212,287.945213 426.063775,272.123248 448.472389,256.449373 C474.623667,238.192804 505.322994,216.251748 534.843856,191.970866 L538.095,189.305241 C555.26862,175.201123 576.700114,157.655387 585.559334,137.491415 C590.16068,127.024394 590.012631,119.199304 585.103344,113.577797 C584.012897,112.36234 582.773292,111.28957 581.413977,110.38497 L581.413977,110.373123 Z M762.210747,65.0752688 C763.031922,65.2332318 763.84915,65.3971183 764.662429,65.5669285 C789.605632,70.7797063 805.920572,81.2348799 813.15718,96.648116 C818.161218,107.310616 818.486925,119.205227 814.004017,132.705137 C833.084502,114.217547 851.78006,92.2824146 855.114112,69.0974007 C840.457315,62.4748035 818.71788,60.1231299 790.079388,62.101616 C780.88854,62.7769077 771.514112,63.7898452 762.210747,65.0930396 L762.210747,65.0752688 Z M544.508459,98.1053243 C561.166871,98.1053243 573.679926,100.474769 581.917342,105.130727 C609.736039,94.6907021 638.255672,86.2246369 667.264313,79.7954424 C670.817476,79.0076021 675.300383,77.9354285 680.499845,76.6914702 C692.835242,73.7296646 709.067274,69.8674702 726.969293,66.3192271 C718.589751,66.0526646 711.139953,66.1296716 705.685848,66.1829841 C666.766871,66.5739424 625.319226,72.5094007 578.956373,84.3210813 C562.888181,88.4162711 547.234524,93.1413382 531.995404,98.4962827 C536.397378,98.2356438 540.568396,98.1053243 544.508459,98.1053243 Z M860.189213,66.3310743 C863.14678,67.8596269 865.937234,69.6919999 868.515457,71.7985674 C866.221101,68.4651105 863.476943,65.4650195 860.360949,62.8835327 C860.360949,63.3890142 860.345157,63.8964702 860.313573,64.4059007 C860.285938,65.061447 860.244484,65.7031716 860.189213,66.3310743 Z"
                          id="Shape"></path>
                </g>
            </g>
        </g>
    </g>
</svg>