<?xml version="1.0" encoding="UTF-8"?>
<svg width="346px" height="378px" viewBox="0 0 346 378" version="1.1" xmlns="http://www.w3.org/2000/svg">
    <!-- Generator: Sketch 42 (36781) - http://www.bohemiancoding.com/sketch -->
    <title>Isolation_Mode</title>
    <desc>Created with Sketch.</desc>
    <defs>
        <linearGradient x1="86.7536382%" y1="-6.02834285%" x2="-7.10226337%" y2="90.8186232%" id="linearGradient-1">
            <stop stop-color="#F79A31" offset="0%"></stop>
            <stop stop-color="#E70042" offset="100%"></stop>
        </linearGradient>
    </defs>
    <g id="Page-1" stroke="none" stroke-width="1" fill="none" fill-rule="evenodd">
        <g id="Landing-Page-" transform="translate(-1094.000000, -1115.000000)" fill="url(#linearGradient-1)">
            <g id="twiggle-illustration"
               transform="translate(1688.657888, 1264.000000) scale(-1, 1) rotate(216.000000) translate(-1688.657888, -1264.000000) translate(1248.657888, 837.500000)">
                <g id="Isolation_Mode" transform="translate(-0.000000, 0.000000)">
                    <path d="M19.5423957,852.680125 C19.2120545,852.679007 18.8819801,852.661213 18.553432,852.626813 C9.85410498,851.744194 6.7628533,837.699313 5.09878869,830.158556 C4.96850606,829.566194 4.85006729,829.021222 4.74347241,828.553257 C-0.92974428,804.088743 -1.47456258,775.619868 3.07940781,741.523563 C11.0681023,681.69509 34.1873486,623.128347 70.3407806,570.686618 C83.3690444,479.030583 96.989502,396.36659 126.534051,317.10275 C141.285599,277.538951 159.696904,241.606326 181.229071,210.300042 C204.543742,176.411063 232.157739,147.035875 263.318977,122.986014 C296.48183,97.3723194 336.194347,75.4075694 381.289906,57.7078194 C419.705518,42.65 463.37389,30.1452569 511.063257,20.6260139 C613.234455,0.225097222 694.276178,-4.84551389 766.121131,4.584875 C783.774428,6.90693056 806.449529,10.6269583 825.340511,18.8489306 C846.215343,27.9416736 857.863795,40.6122778 860.060834,56.5882569 C874.232032,66.7827917 880.787618,80.2827014 879.561777,96.8095764 C876.890983,133.032458 845.214536,166.329076 819.750202,193.091951 C816.960969,196.024139 814.325707,198.796389 811.797039,201.497556 C780.363392,235.102201 747.467026,268.33366 715.648452,300.463326 C681.413728,335.039444 646.018304,370.788438 612.375774,407.088326 C584.424226,437.239507 556.768775,468.634646 530.025303,498.987229 C498.425841,534.813229 465.778197,571.87134 432.413997,607.170139 C430.134051,609.581049 427.421803,612.548778 424.283176,615.984472 C411.616151,629.839799 392.476447,650.77384 372.10498,667.431035 C347.04926,687.914882 326.962046,696.575201 310.700404,693.909576 C302.841992,692.624153 296.049529,688.625715 290.394078,681.9735 C281.20323,693.429764 271.888022,704.814944 262.47214,715.986875 C261.021265,717.704722 259.286137,719.902382 257.2786,722.443611 C245.381427,737.489583 226.14105,761.811931 208.126514,761.811931 C206.465194,761.815376 204.810634,761.600282 203.205384,761.172181 C180.595424,755.11825 179.197847,711.810729 178.44576,688.548708 C178.351009,685.551361 178.268102,682.962743 178.149664,680.913174 C173.46541,599.345049 179.499865,517.688069 195.607537,444.05166 C156.931359,476.927701 121.008883,512.433826 89.9364738,552.015396 C84.6777927,558.728822 79.6461193,565.544924 74.8414536,572.463701 C74.4940332,574.920025 74.1466128,577.386222 73.7991925,579.862292 C70.2460296,604.919167 67.7410498,631.22 65.2893674,656.655986 C59.7286676,714.369729 53.9784657,774.044188 36.2244953,828.405167 C35.9994616,829.098229 35.7448183,829.951229 35.4605653,830.904931 C33.1628533,838.593778 28.9345895,852.680125 19.5423957,852.680125 Z M68.8247645,581.426125 C36.2008075,631.184458 15.2549125,686.108181 7.77550471,742.151465 C3.29851952,775.673181 3.81965007,803.585236 9.35666218,827.481083 C9.469179,827.960896 9.5935397,828.517715 9.72382234,829.133771 C10.8253028,834.121451 13.7448183,847.372569 19.0271871,847.911618 C25.2629879,848.557292 29.0944818,835.708979 30.9362046,829.548424 C31.2323015,828.553257 31.5283984,827.664715 31.7356662,826.936111 C49.3297443,773.072715 55.0562584,713.658896 60.5932705,656.205792 C62.9502019,631.456944 65.4137281,605.914333 68.7951548,581.432049 L68.8247645,581.426125 Z M201.576851,438.986972 C184.545357,513.766639 178.072678,597.242167 182.863526,680.62884 C182.981965,682.743569 183.070794,685.367729 183.165545,688.382847 C183.82288,708.848924 185.19677,751.439688 204.413459,756.581382 C220.752086,760.958931 242.088829,733.982806 253.565545,719.487729 C255.602692,716.916882 257.355585,714.695528 258.853836,712.918444 C268.494751,701.485875 278.023149,689.816361 287.433109,678.087611 C285.16881,674.754535 283.221846,671.216484 281.617766,667.519889 C272.734859,647.415153 269.217227,624.798806 268.228264,601.489396 C249.870256,578.54725 242.76393,538.88275 240.140511,506.711618 C238.707949,489.060452 238.229549,471.344771 238.707402,453.641986 C238.757631,443.130744 239.384324,432.630174 240.584657,422.187611 C241.074204,416.887954 241.65258,411.610016 242.319785,406.353799 C228.490085,416.976808 214.909107,427.854532 201.576851,438.986972 Z M293.414266,678.182389 C298.471602,684.38441 304.506057,688.086667 311.458412,689.224 C345.752355,694.839583 396.432301,639.418278 420.783311,612.779799 C423.939704,609.332257 426.663795,606.352681 428.967429,603.894382 C462.278331,568.666667 494.902288,531.650021 526.460296,495.841792 C553.227456,465.465514 580.900673,434.052604 608.893674,403.854035 C642.58358,367.500833 678.014536,331.722222 712.272948,297.12241 C744.067833,265.010514 776.940511,231.808674 808.326783,198.251417 C810.867295,195.532479 813.508479,192.760229 816.303634,189.816194 C841.234993,163.604215 872.260027,130.982889 874.80646,96.4541597 C875.055942,93.273 874.946685,90.0738591 874.480754,86.9171458 C871.527681,80.5472894 866.56707,75.3680787 859.598923,71.3795139 C854.938358,98.5333472 831.286137,123.359201 809.730283,143.333618 C809.01965,144.81847 808.25572,146.323067 807.438493,147.84741 C798.638493,164.315049 785.770121,179.414333 775.430417,191.551812 C774.210498,192.979403 773.061642,194.359604 771.918708,195.69834 C752.524361,218.64641 731.00996,240.232049 710.200269,261.100931 C703.484791,267.836076 696.538358,274.802243 689.775505,281.709174 C654.332705,317.872819 617.983849,354.338569 582.831225,389.601826 C558.728937,413.776083 533.809421,438.767799 509.399192,463.45741 C499.924092,473.024042 490.490444,482.969785 480.494213,493.501965 C442.167429,533.865451 399.245222,579.068528 350.341857,605.547069 C344.783131,612.655403 339.255989,619.736093 333.760431,626.789139 C320.584118,643.730667 307.123553,661.021688 293.414266,678.182389 Z M273.250067,607.063514 C274.535128,627.796153 278.064603,647.794264 285.934859,665.606563 C287.234066,668.588988 288.768755,671.463134 290.524361,674.201722 C303.93755,657.396438 317.113863,640.466757 330.041454,623.851028 L340.345626,610.617681 C338.047914,611.719472 335.736384,612.77585 333.411036,613.786813 C313.59031,622.423438 296.398923,622.524139 282.322476,614.09484 C279.035781,612.111206 275.991147,609.751545 273.250067,607.063514 L273.250067,607.063514 Z M272.888829,599.706389 C276.248908,603.784121 280.261038,607.276962 284.762315,610.04309 C297.453028,617.643083 313.187618,617.447604 331.545626,609.450729 C336.843786,607.140521 342.076806,604.597317 347.244684,601.821118 C367.438493,576.006021 388.194886,549.912514 409.661911,524.932646 C460.25895,466.051951 521.077254,397.189972 588.534051,332.889174 C624.06568,299.04166 661.847645,266.645431 698.397847,235.315451 C727.853567,210.069021 758.310094,183.963667 787.369044,157.271875 C789.868102,154.973514 792.497443,152.604069 795.280754,150.092458 C798.668102,147.035875 802.227187,143.825278 805.851413,140.478438 C813.467026,124.206278 814.461911,110.499042 808.918977,98.6873611 C802.351548,84.6957917 787.155855,75.1173125 763.746433,70.2540278 C757.983749,69.0759077 752.164816,68.1921448 746.312248,67.6061736 C721.333513,71.8534028 698.001077,77.4275208 681.656528,81.3311806 C676.4393,82.5751389 671.932705,83.6532361 668.349933,84.4529236 C640.609774,90.6025879 613.318169,98.6257447 586.662719,108.467243 C587.393743,109.110938 588.08214,109.801509 588.723553,110.534583 C594.870525,117.583681 595.285061,127.322097 589.943472,139.471424 C580.628264,160.672028 558.734859,178.620569 541.146703,193.044563 L537.90148,195.704264 C508.29179,220.091771 477.46218,242.097986 451.233917,260.413792 C428.789771,276.081743 405.392194,291.915556 382.758546,307.210319 C361.783042,321.426986 340.659489,335.691042 319.67214,350.257201 C310.534797,370.856374 302.818231,392.057196 296.576581,413.710924 C283.760617,458.127945 276.098525,503.872981 273.741588,550.042833 C272.888829,566.498625 272.267026,583.280215 272.882907,599.706389 L272.888829,599.706389 Z M798.822073,153.267514 L798.431225,153.617007 C795.659758,156.116771 793.036339,158.486215 790.549125,160.766806 C761.430956,187.51191 730.944818,213.646882 701.459489,238.917007 C664.95074,270.205521 627.198385,302.560285 591.779273,336.324868 C524.470525,400.477576 463.752894,469.232931 413.23284,528.024771 C394.353701,549.995444 376.001615,572.85466 358.105518,595.630944 C402.271332,568.974694 441.640377,527.509417 477.059489,490.226208 C487.073486,479.676257 496.530821,469.718667 506.02961,460.116493 C530.44576,435.426882 555.365276,410.429243 579.461642,386.249063 C614.608345,350.991729 650.951279,314.537826 686.376312,278.386028 C693.156931,271.46725 700.109287,264.49516 706.830686,257.748167 C727.55747,236.944444 749.012651,215.435813 768.282638,192.635833 C769.403858,191.308944 770.578376,189.926769 771.806191,188.489306 C780.363392,178.448785 790.667564,166.358694 798.822073,153.267514 L798.822073,153.267514 Z M243.391655,454.441674 C242.947654,471.751802 243.426035,489.0733 244.824764,506.332507 C248.454913,551.109083 257.746433,577.534313 267.920323,593.071944 C267.659758,578.677569 268.222342,564.11141 268.956662,549.782194 C271.331639,503.241117 279.055347,457.128268 291.975236,412.354417 C297.57209,392.986981 304.327378,373.973464 312.204576,355.416667 C290.696097,370.438944 269.34751,385.787021 248.472678,401.620833 C247.150112,408.654134 246.084163,415.695333 245.274832,422.744431 C244.33127,432.968583 243.717362,443.267769 243.433109,453.641986 L243.433109,454.115875 C243.426841,454.225303 243.41299,454.334164 243.391655,454.441674 Z M693.387887,4.73888889 C640.161507,4.73888889 580.912517,11.5036528 511.969314,25.270125 C464.593809,34.7479028 421.180081,47.1341736 382.989502,62.1209097 C338.308479,79.6607222 299.010498,101.400375 266.179273,126.765278 C235.385195,150.513035 208.14428,179.532806 185.096097,213.018979 C163.77712,244.005389 145.555316,279.594444 130.939973,318.790979 C102.51467,394.974542 88.8942127,474.499021 76.3041723,562.251396 C79.5138627,557.824484 82.8163302,553.44891 86.2115747,549.124674 C118.782234,507.612007 156.635262,470.607208 197.313055,436.410201 L197.733513,434.597576 C218.774159,344.161806 254.145895,269.69609 302.853836,213.25 C357.027725,150.459722 430.175505,103.971222 526.401077,71.1899583 C569.73782,56.4283194 613.216689,45.7184306 655.623688,39.4394028 C702.768237,32.4258472 747.472948,31.0456458 788.488291,35.3284167 C813.703903,37.9644236 833.044953,42.5789167 847.630686,49.4384583 C850.023149,50.5639444 852.283356,51.7486667 854.411306,52.992625 C851.000269,40.7070556 840.619112,30.7257708 823.404038,23.2264792 C805.075639,15.2414514 782.820996,11.5984306 765.475639,9.31784028 C741.572371,6.21606362 717.491395,4.68646093 693.387887,4.73888889 L693.387887,4.73888889 Z M740.402153,37.6090069 C712.249668,37.7113301 684.143013,39.8892213 656.310633,44.1249792 C614.193809,50.3506944 570.993271,60.9776528 527.923015,75.6445139 C432.496904,108.147368 360.053836,154.161979 306.436608,216.318431 C259.007806,271.307313 224.340781,343.622757 203.359354,431.345514 C216.387618,420.548745 229.664603,410.010641 243.19031,399.731201 C250.113055,350.624465 264.633647,304.035264 286.136205,263.138653 C327.370659,184.733736 391.943472,131.077667 472.8786,107.96966 C480.239569,105.866778 496.134051,102.442931 513.710363,100.268965 C534.64704,92.1492612 556.05662,85.306784 577.821265,79.7791944 C624.539435,67.8668125 666.35424,61.8898889 705.658143,61.4930069 C715.056258,61.3982292 730.275639,61.2442153 746.116824,62.8435903 C785.343742,56.2150694 828.538358,52.8919236 855.607537,64.2415625 C855.687108,62.5947438 855.659414,60.9444902 855.52463,59.3012708 C852.364665,57.1954573 849.048618,55.3339854 845.605384,53.7330764 C831.511171,47.1045556 812.661642,42.6263056 787.984926,40.0495347 C772.17698,38.4120173 756.294635,37.5974094 740.402153,37.6090069 L740.402153,37.6090069 Z M514.888829,104.847917 C453.300673,128.885931 399.576851,163.236951 357.282369,205.975806 C300.923284,262.93725 263.988156,328.292451 249.905787,394.642819 C271.526783,378.341042 293.615612,362.578313 315.840646,347.135458 C322.987962,331.095355 331.034861,315.471654 339.942934,300.338931 C361.072409,264.512931 386.643338,232.50766 415.951009,205.193889 C449.007268,174.391111 488.500673,147.734861 533.335666,125.989285 C547.129834,119.295604 561.320772,113.111354 575.908479,107.436535 C565.870794,103.337396 550.201346,101.939424 529.664065,103.390708 C524.683715,103.763896 519.727052,104.255556 514.888829,104.847917 Z M495.109556,107.868958 C486.043069,109.515722 478.569583,111.245417 474.181427,112.501222 C394.525437,135.241965 330.94751,188.0865 290.334859,265.330389 C276.714401,291.198799 265.960162,319.377417 258.166891,349.042861 C277.117093,297.412667 309.587079,247.447007 353.912786,202.65266 C392.488291,163.675299 440.420458,131.610792 495.109556,107.880806 L495.109556,107.868958 Z M581.445491,110.386493 C565.653656,116.408831 550.298071,123.035377 535.378735,130.266132 C490.964199,151.816229 451.879408,178.194069 419.154778,208.676972 C379.892328,245.267118 347.499327,290.487965 323.49179,341.810132 C342.341319,328.778188 361.273755,315.989111 380.087752,303.259271 C402.703634,287.958583 426.095289,272.136618 448.503903,256.462743 C474.655182,238.206174 505.354509,216.265118 534.87537,191.984236 L538.126514,189.318611 C555.300135,175.214493 576.731629,157.668757 585.590848,137.504785 C590.192194,127.037764 590.044145,119.212674 585.134859,113.591167 C584.044411,112.375711 582.804806,111.30294 581.445491,110.39834 L581.445491,110.386493 Z M762.242261,65.0886389 C763.063437,65.2466019 763.880664,65.4104884 764.693943,65.5802986 C789.637147,70.7930764 805.952086,81.24825 813.188694,96.6614861 C818.192732,107.323986 818.518439,119.218597 814.035532,132.718507 C833.116016,114.230917 851.811575,92.2957847 855.145626,69.1107708 C840.488829,62.4881736 818.749394,60.1365 790.110902,62.1149861 C780.920054,62.7902778 771.545626,63.8032153 762.242261,65.1064097 L762.242261,65.0886389 Z M544.539973,98.1186944 C561.198385,98.1186944 573.71144,100.488139 581.948856,105.144097 C609.767553,94.7040722 638.287186,86.238007 667.295828,79.8088125 C670.848991,79.0209722 675.331898,77.9487986 680.531359,76.7048403 C692.866756,73.7430347 709.098789,69.8808403 727.000808,66.3325972 C718.621265,66.0660347 711.171467,66.1430417 705.717362,66.1963542 C666.798385,66.5873125 625.35074,72.5227708 578.987887,84.3344514 C562.919695,88.4296412 547.266039,93.1547083 532.026918,98.5096528 C536.428892,98.2490139 540.59991,98.1186944 544.539973,98.1186944 Z M860.220727,66.3444444 C863.178294,67.872997 865.968748,69.70537 868.546972,71.8119375 C866.252616,68.4784806 863.508457,65.4783896 860.392463,62.8969028 C860.392463,63.4023843 860.376671,63.9098403 860.345087,64.4192708 C860.317452,65.0748171 860.275998,65.7165417 860.220727,66.3444444 Z"
                          id="Shape"></path>
                </g>
            </g>
        </g>
    </g>
</svg>