<svg id="Capa_1" data-name="Capa 1" xmlns="http://www.w3.org/2000/svg" xmlns:xlink="http://www.w3.org/1999/xlink" viewBox="0 0 297.97 265.69"><defs><style>.cls-1{fill:#2e6da4;}.cls-2{fill:#122b40;}.cls-3{fill:url(#Degradado_sin_nombre_29);}.cls-4{fill:url(#Degradado_sin_nombre_29-2);}.cls-5{fill:url(#Degradado_sin_nombre_29-3);}.cls-6{fill:url(#Degradado_sin_nombre_29-4);}.cls-7{fill:url(#Degradado_sin_nombre_29-5);}.cls-8{fill:url(#Degradado_sin_nombre_29-6);}.cls-9{fill:url(#Degradado_sin_nombre_29-7);}.cls-10{fill:url(#Degradado_sin_nombre_29-8);}.cls-11{fill:url(#Degradado_sin_nombre_29-9);}.cls-12{fill:url(#Degradado_sin_nombre_29-10);}.cls-13{fill:url(#Degradado_sin_nombre_29-11);}.cls-14{fill:url(#Degradado_sin_nombre_29-12);}.cls-15{fill:url(#Degradado_sin_nombre_29-13);}.cls-16{fill:url(#Degradado_sin_nombre_29-14);}.cls-17{fill:url(#Degradado_sin_nombre_29-15);}.cls-18{fill:url(#Degradado_sin_nombre_29-16);}.cls-19{fill:url(#Degradado_sin_nombre_29-17);}.cls-20{fill:url(#Degradado_sin_nombre_29-18);}.cls-21{fill:url(#Degradado_sin_nombre_29-19);}</style><linearGradient id="Degradado_sin_nombre_29" x1="-260.4" y1="198.06" x2="463.33" y2="278.04" gradientUnits="userSpaceOnUse"><stop offset="0" stop-color="#ff9500" stop-opacity="0.93"/><stop offset="0.21" stop-color="#fe9502" stop-opacity="0.92"/><stop offset="0.28" stop-color="#f9960a" stop-opacity="0.91"/><stop offset="0.33" stop-color="#f09718" stop-opacity="0.87"/><stop offset="0.38" stop-color="#e49a2c" stop-opacity="0.83"/><stop offset="0.41" stop-color="#d49c45" stop-opacity="0.76"/><stop offset="0.45" stop-color="#c09f65" stop-opacity="0.69"/><stop offset="0.48" stop-color="#a8a38b" stop-opacity="0.6"/><stop offset="0.5" stop-color="#8ea8b6" stop-opacity="0.5"/><stop offset="0.52" stop-color="#74acdf" stop-opacity="0.4"/><stop offset="0.55" stop-color="#5888b2" stop-opacity="0.57"/><stop offset="0.62" stop-color="#305271" stop-opacity="0.82"/><stop offset="0.72" stop-color="#18344a" stop-opacity="0.96"/><stop offset="1" stop-color="#122b40"/></linearGradient><linearGradient id="Degradado_sin_nombre_29-2" x1="-257.63" y1="173" x2="466.1" y2="252.98" xlink:href="#Degradado_sin_nombre_29"/><linearGradient id="Degradado_sin_nombre_29-3" x1="-254.61" y1="145.73" x2="469.11" y2="225.7" xlink:href="#Degradado_sin_nombre_29"/><linearGradient id="Degradado_sin_nombre_29-4" x1="-252.21" y1="124.02" x2="471.51" y2="204" xlink:href="#Degradado_sin_nombre_29"/><linearGradient id="Degradado_sin_nombre_29-5" x1="-246.54" y1="72.69" x2="477.18" y2="152.66" xlink:href="#Degradado_sin_nombre_29"/><linearGradient id="Degradado_sin_nombre_29-6" x1="-243.85" y1="48.29" x2="479.88" y2="128.27" xlink:href="#Degradado_sin_nombre_29"/><linearGradient id="Degradado_sin_nombre_29-7" x1="-241.84" y1="30.13" x2="481.88" y2="110.1" xlink:href="#Degradado_sin_nombre_29"/><linearGradient id="Degradado_sin_nombre_29-8" x1="-240.33" y1="16.48" x2="483.39" y2="96.46" xlink:href="#Degradado_sin_nombre_29"/><linearGradient id="Degradado_sin_nombre_29-9" x1="-238.57" y1="0.55" x2="485.15" y2="80.53" xlink:href="#Degradado_sin_nombre_29"/><linearGradient id="Degradado_sin_nombre_29-10" x1="-237.24" y1="-11.47" x2="486.48" y2="68.51" xlink:href="#Degradado_sin_nombre_29"/><linearGradient id="Degradado_sin_nombre_29-11" x1="-236.54" y1="-17.78" x2="487.18" y2="62.19" xlink:href="#Degradado_sin_nombre_29"/><linearGradient id="Degradado_sin_nombre_29-12" x1="-237.66" y1="-7.68" x2="486.06" y2="72.3" xlink:href="#Degradado_sin_nombre_29"/><linearGradient id="Degradado_sin_nombre_29-13" x1="-239.48" y1="8.8" x2="484.24" y2="88.77" xlink:href="#Degradado_sin_nombre_29"/><linearGradient id="Degradado_sin_nombre_29-14" x1="-241.41" y1="26.28" x2="482.31" y2="106.25" xlink:href="#Degradado_sin_nombre_29"/><linearGradient id="Degradado_sin_nombre_29-15" x1="-243.93" y1="49.02" x2="479.8" y2="128.99" xlink:href="#Degradado_sin_nombre_29"/><linearGradient id="Degradado_sin_nombre_29-16" x1="-249.25" y1="97.22" x2="474.47" y2="177.19" xlink:href="#Degradado_sin_nombre_29"/><linearGradient id="Degradado_sin_nombre_29-17" x1="-252.47" y1="126.31" x2="471.26" y2="206.28" xlink:href="#Degradado_sin_nombre_29"/><linearGradient id="Degradado_sin_nombre_29-18" x1="-256.07" y1="158.91" x2="467.65" y2="238.89" xlink:href="#Degradado_sin_nombre_29"/><linearGradient id="Degradado_sin_nombre_29-19" x1="-259.11" y1="186.45" x2="464.61" y2="266.42" xlink:href="#Degradado_sin_nombre_29"/></defs><title>whenDesMeetTech</title><path class="cls-1" d="M149.72,185.85a58.07,58.07,0,0,0,58-58,58.87,58.87,0,0,0-.33-6.14l-.18-1.7-57.49,0v17.51H189a40.5,40.5,0,0,1-39.3,30.76"/><path class="cls-2" d="M149.72,168.33a40.49,40.49,0,1,1,35.85-59.25l.54,1h18.84l-1-2.57a58,58,0,1,0-54.26,78.31"/><path class="cls-2" d="M149.72,137.36a40.49,40.49,0,1,1-35.85,59.25l-.54-1H94.49l1,2.57a58,58,0,1,0,54.26-78.31"/><path class="cls-3" d="M46.77,216.56l.05.08a1.64,1.64,0,0,1-.25,1.34q-.54.36-1.11-.29-.54.36-1.34-.28c-.06,0-.11,0-.15,0a3.5,3.5,0,0,0-.75,2.3q-.3.2-.44,1.84a6.91,6.91,0,0,0-.94,2.06,3.83,3.83,0,0,0-1,2.49l.36.54q.76,1.13,3.3.49.12.17,1.66-.61.16.24,2.07-.75.18.27,1.45.06a4.9,4.9,0,0,1,2.29.9,2.08,2.08,0,0,1,0,2.15q.3.44-.83,1.85.25.36-1.7,3.21.23.35-1.23,2.37.42.62-1.77,2.73a5.47,5.47,0,0,1-1.38,2.74q.16.93-2.89,3a2.47,2.47,0,0,0-.5.59Q37.49,247.74,37,247q-.79.53-1.22-.1l-.3-.44-.19.13q-.17.12.12.56a.19.19,0,0,1-.29-.06l-.23-.35q-.13-.19,1.26-1.75a1,1,0,0,0,0-.4l-.25-.36a3.6,3.6,0,0,1-.47-3.16q-.34-.51,1.22-2.22a1.14,1.14,0,0,1,.43-1.07,5.08,5.08,0,0,0,.78-.38,10.58,10.58,0,0,0,1.71-2.83,1.73,1.73,0,0,1-.22-1.28l-.05-.08a3.15,3.15,0,0,1-1.78-.73q-1.35.29-2.68-1.69l-.05-.08a3,3,0,0,0-.25-1.9,6.51,6.51,0,0,0-.19-2.57q-.6-.89-1.31-.41-.91.73-1.63,1.21l-.36.25-1.07.33q-.62.42-3.21,2.69a2.61,2.61,0,0,0-1.79,0,8.61,8.61,0,0,1-1.77-1.5q-.22-1.39.25-1.71a49.86,49.86,0,0,1,5.74-5.29l.7-.08q1.63-1.24,2.25-1.65.44-.3.69.07,1.28-.86,3-1.89a2.7,2.7,0,0,0,.5-.59l.24,0q2-1.63,2.71-2.1a4.56,4.56,0,0,0,2.35-.54,5,5,0,0,1,1.63,1.09q.38-.19.53,0c-.17.25-.22.42-.17.5l.3.44a.72.72,0,0,0,.85-.07,1.93,1.93,0,0,1,.45-.67Q46.33,215.89,46.77,216.56Zm-13.53,14a2.44,2.44,0,0,1-.91,1.14q-.76.37-1.47-.69c-.15-.5-.14-.8,0-.92a6,6,0,0,0,.85-.45l.27-.18A8,8,0,0,1,33.25,230.54Z"/><path class="cls-4" d="M8.55,203.7l-.13-.36,0-1.89a2.9,2.9,0,0,1,2-2.05s.12-.12.4-.23l.36-.13a7.63,7.63,0,0,0,2.65-.09l.12-.12a12,12,0,0,0,3.66-.23l0-.07a1.29,1.29,0,0,0,.65,0l1.14-.43a1,1,0,0,1,.92.06,3.78,3.78,0,0,0,.66-.41.58.58,0,0,0,.24,0l.4-.23a7.75,7.75,0,0,0,1.48-.39l.36-.13a.15.15,0,0,0,.09-.2,3.78,3.78,0,0,0,.6-.14q.36-.13,3.63-1.84a1.53,1.53,0,0,1,.54.13l.93-.35q2-.39,2.26.38a3.22,3.22,0,0,1,.59.92l.29-.11a1.29,1.29,0,0,0,.52-.36,5.32,5.32,0,0,1,1.41.29.6.6,0,0,1,.18.26l0,.07-.64.89q-1.35.32-1.66-.52a.76.76,0,0,0-.27-.06,4.52,4.52,0,0,1-2,1.81,5.3,5.3,0,0,1-1.21.7l-.29.11-.74.19,0,.17.13.36a2.91,2.91,0,0,0,1.91,2.06l.34.69a1.25,1.25,0,0,1-.16.87l0,.07,3.73-1.8a2.12,2.12,0,0,1,.87-.08q2.5-1.34,2.8-1.45.63-.23,1.54.65.57-.21,1.16,1.36a.86.86,0,0,0,.54.13l.08.21a11.12,11.12,0,0,0-.41,1.95l-.07,0-.39-.18a10.16,10.16,0,0,0-2.55,1.68q-.36.13-.3.28l-.53.12-2.32,1.19-.46.09a.59.59,0,0,1-.19.15,2.14,2.14,0,0,0-1.18.11,1.56,1.56,0,0,0-.91.83q-1.27,1.41-1.17,1.66a14.34,14.34,0,0,0-4.07.46l-.36.13q-.85.56-.92.59l-1.43.53q-.85.56-.92.59l-1,.37a6.47,6.47,0,0,0-.9.42q-3.14.76-3.35.19-.64.24-.91-.48a4.64,4.64,0,0,1-.8-1.49l.27-.59-.16-.43q2.49-2,2.86-2.37l.38-.06c.3-.17.44-.3.42-.4a2.74,2.74,0,0,0,1-.06l2.29-.85q.85-.56.92-.59l1.5-.56q.43-.16.22-.73l-.16-.43a1.11,1.11,0,0,0,.12-.78l0-.07-.22-.16-.27-.72a.07.07,0,0,0-.1,0l0-.17-.53-1.43-.2-.33-.43.16a27.82,27.82,0,0,1-2.73,1.43,1.23,1.23,0,0,0-.55,0l-1.85.94q-1.5.4-2.34.71l-.72.27a1.22,1.22,0,0,1-.75,0l-.29.11q-.41.15-1.12.5a5.18,5.18,0,0,0-2,.34.93.93,0,0,0-1-.28q-.06-.16-.93-.31A3.27,3.27,0,0,1,8.55,203.7Z"/><path class="cls-5" d="M6.22,178.29s.1-.46.31-1.3l.34.17.15,0q-.09-.53.58-.65a5.19,5.19,0,0,0,1-.49,23.14,23.14,0,0,0,2.19,1.39l-.14.49q1.28,2.6,1.9,2.84.46,1.39.93,1.31,1.2-.22,1.24,0a3.5,3.5,0,0,0,2.58-1.62q0-.21-.34-1.49a5.5,5.5,0,0,0,.4-1.23q.38-.07.2-1h-.07q0-1.86.5-2a1.08,1.08,0,0,0,.51-.17q.62-.11,1.42,2.77a1.82,1.82,0,0,1-.11,1.11l.29,1.65.19.2a19.81,19.81,0,0,1,2.06-.6,3.71,3.71,0,0,1,.94.06q1-.17.88-.7l-.12-.68a8.36,8.36,0,0,1-.19-3.22l0-.15a13.38,13.38,0,0,1,0-4,3.46,3.46,0,0,1,.27-2,3.36,3.36,0,0,1,.24-2.14,1.44,1.44,0,0,1,.57-1.58q0-.21.54-.87c0-.2.12-.33.47-.39a4.72,4.72,0,0,1,3,.63,2.42,2.42,0,0,1,1.06,1.6l.13.75a3.2,3.2,0,0,1-.45,2.25l-.24.82a4.18,4.18,0,0,1-.5,2,1.86,1.86,0,0,1-.26.74,19.12,19.12,0,0,0-.48,3.81q-.36.06-.19,2a3.18,3.18,0,0,0-.11,1.11q.26.13.67,1.59.35.25.5.22l0,.23a11.18,11.18,0,0,0-.76,1.84h-.08l-.35-.25a10.12,10.12,0,0,0-2.81,1.2q-.38.07-.35.22l-.54,0a32.9,32.9,0,0,1-3.18.88,2.13,2.13,0,0,0-1.18-.1q-1.65.53-4.07,1.5a2.44,2.44,0,0,0-1.12-.19l-1.28.23q-1.33.7-1.42.72l-.3.05a3.38,3.38,0,0,1-2.25-.45q-.51.09-1.17-1.34l-.09-.92-.31-1.73c-.06-.35-.14-.52-.24-.5a2.28,2.28,0,0,1,0-.31Q6.32,178.83,6.22,178.29Z"/><path class="cls-6" d="M2.48,145a1.8,1.8,0,0,1,.91-1.45q0-.4,1.77-.72a2.29,2.29,0,0,1,1.25.41h.5a18,18,0,0,0,1.85-.05q.11,0,3.1.55a.08.08,0,0,1,.1-.09.74.74,0,0,1,.18.4h.4q.4-.87,1-.86a3.18,3.18,0,0,0,2-.45q3.61.08,3.59,1,3,1.21,3.07,1.82.84,0,1.12,2.07v.1A4.33,4.33,0,0,1,20.32,149a2.22,2.22,0,0,0-1.59,1.13q-.45,2.13-.72,2.12v.4a16.46,16.46,0,0,1,1.29,2.85,22.85,22.85,0,0,1,2.61,1.13H22l.59-.08a.73.73,0,0,0,.28.1,4.34,4.34,0,0,1,1.17-.17c.91.21,1.4.32,1.46.32h.29a13.61,13.61,0,0,0,2-.15,4.57,4.57,0,0,1,1.46.61c.18,0,.5.24,1,.71q.71,0,1,2.85a1.87,1.87,0,0,1-1.11,1.92A8.62,8.62,0,0,1,27.39,164q0,.93-1.19,1.33a16.9,16.9,0,0,0-2-.64q-.25-.92-.57-1.08l-1.85,0a18.88,18.88,0,0,0-2.91-.54c0-.09-.49-.2-1.46-.34a20.81,20.81,0,0,1-5.66.66,43.94,43.94,0,0,0-5.06.19q-3-.07-3.45-2.71,0-1.53,2.14-4.25A2.09,2.09,0,0,1,6,155.42a4.15,4.15,0,0,1,.71-1.05,2.07,2.07,0,0,1,.59-1q0-.46,1-.86A4.22,4.22,0,0,0,9,150.81q.5,0,.5-.37l-.1-.5q.88-.21.89-.67,0-.08.13-.78a.93.93,0,0,0-.3-.2H9.72l-.82,1.64a16.75,16.75,0,0,1-2.46.82l-.76,0a1.41,1.41,0,0,1-1.44-1.39q0-.5.49-.49v-.29H4.35v-.1l.89-.76v-.19A8.48,8.48,0,0,0,3,146.38,2.15,2.15,0,0,1,2.48,145Z"/><path class="cls-7" d="M12.59,103l.17-.4,1.55-1.55a3.36,3.36,0,0,1,3.34-.11q0-.09.53.13l.74.32c0-.11.1-.14.16-.12a12.67,12.67,0,0,1,.91-3,1.19,1.19,0,0,1,.49-.45l.36-.82a4.17,4.17,0,0,0,.23-.77,6.79,6.79,0,0,0,.9-1.15q.19-.44.7-2,.08-.19.9-.3a10.28,10.28,0,0,1,4.23-1.93,12.78,12.78,0,0,1,3.64,1,10.43,10.43,0,0,1,2.79,2.67,3.36,3.36,0,0,1,1.28,1.33,2.37,2.37,0,0,0,.49.88q.3.13.4.86.49.21.46,1.18.44.19,1.34,2.71-.15,1.58.54,1.88-.22,1.36.27,1.58a25.72,25.72,0,0,1-1.47,6.54s-.14.25-.37.61l.16.07q2,1.27,1.58,2.15-.15.81-.07.84a1.06,1.06,0,0,1-1.19.73q-.66.36-3-.24a2.55,2.55,0,0,1-2.07-.11l-.58-.25a3.34,3.34,0,0,1-1.06-1.34l-7.11-2.13a1.51,1.51,0,0,0-.51-.41L21,110.67a10.5,10.5,0,0,0-1.46.72,5,5,0,0,1-1.86-.23,1.62,1.62,0,0,1-.89-1.26q-.53-.23-.06-1.67a11.18,11.18,0,0,0-1.26-.45,7.7,7.7,0,0,0-2-1.37,1.09,1.09,0,0,0-.61-1q.08-.17-.54-1A3.89,3.89,0,0,1,12.59,103Zm11.57,2.6,0-.07a1.34,1.34,0,0,0,.48.48l1.15.5a1,1,0,0,1,.64.69,3.52,3.52,0,0,0,.78.17.6.6,0,0,0,.2.17l.47.12q.87.54,1.71,1,2.16.73,2.27.49l.23-.34q1.46-4.59.23-5.65a6,6,0,0,1-.38-1.27.93.93,0,0,1-.46-.72.64.64,0,0,0-.33-.06,6.53,6.53,0,0,0-1.56-1.72,2.72,2.72,0,0,0-2.41.43,1.49,1.49,0,0,0-1.31,1.05q-.44,0-.55.26a.6.6,0,0,0,0,.26,2.05,2.05,0,0,1-.75.78l-.1.23a5.51,5.51,0,0,1-.49.89,2.13,2.13,0,0,1-.16.62,2,2,0,0,0-.61.59q-.22.51.79.95S24,105.58,24.16,105.64Z"/><path class="cls-8" d="M32.84,70.25s.39-.25,1.14-.7l.12.36.13.09q.31-.44.87,0a5.25,5.25,0,0,0,1.05.36,23,23,0,0,0,.56,2.53l-.45.24q-.93,2.75-.66,3.35-.66,1.31-.27,1.58,1,.7.87.89a3.5,3.5,0,0,0,3,.68q.12-.17.81-1.3a5.51,5.51,0,0,0,1.16-.59q.31.22.88-.6l-.06,0q1.31-1.32,1.74-1a1.08,1.08,0,0,0,.48.24q.52.36-.95,3-.55.66-.86.7l-1,1.38v.28a19.78,19.78,0,0,1,1.88,1,3.74,3.74,0,0,1,.62.71q.81.57,1.12.13l.39-.56a8.37,8.37,0,0,1,2.15-2.41l.09-.13a13.38,13.38,0,0,1,2.79-2.8A3.46,3.46,0,0,1,52,76.36,3.36,3.36,0,0,1,53.7,75a1.44,1.44,0,0,1,1.52-.71q.12-.17,1-.23.17-.25.61.06a4.71,4.71,0,0,1,1.66,2.55,2.41,2.41,0,0,1-.38,1.88l-.44.63a3.2,3.2,0,0,1-1.91,1.27l-.75.41a4.2,4.2,0,0,1-1.74,1,1.88,1.88,0,0,1-.71.35,19.11,19.11,0,0,0-3,2.35q-.3-.21-1.53,1.26a3.19,3.19,0,0,0-.86.7q.09.27-.65,1.6a.86.86,0,0,0,.2.51l-.13.19a11.15,11.15,0,0,0-1.84.77l-.06,0-.08-.43A10.15,10.15,0,0,0,41.77,88q-.31-.22-.4-.09l-.4-.37a32.87,32.87,0,0,1-2.87-1.63,2.14,2.14,0,0,0-.77-.91q-1.54-.79-3.94-1.82a2.46,2.46,0,0,0-.66-.92l-1.06-.74q-1.44-.44-1.51-.5l-.25-.17A3.37,3.37,0,0,1,28.63,79q-.42-.29.12-1.78l.59-.71,1-1.44c.2-.29.26-.47.18-.53l.24-.21Q32.52,70.71,32.84,70.25Z"/><path class="cls-9" d="M44,51.68q.78.18,1-.06a4,4,0,0,1,1.45-.72,2.49,2.49,0,0,0,1.13-.39.78.78,0,0,1,.33.21l.16-.16q.23-.23,1.08-.12.21-.22,1.9.68a7.64,7.64,0,0,0,2,1.12l.22.21.39.91a9.87,9.87,0,0,0-.58,2q-1,1.75-.74,2.06a1.36,1.36,0,0,0,.23,1.4,4,4,0,0,0,2.65,1.11q.27.27,1.57,0,.2.2.7,0a2.52,2.52,0,0,0,1.68.26,27.62,27.62,0,0,0,2.87,1.11,8,8,0,0,1,1.74,1.39,2.24,2.24,0,0,1,.45,1.72,2.73,2.73,0,0,1,.34,1.72q-.27.27.06,1a3.81,3.81,0,0,1-.2,1.94q.35.35-1.43,3-.73,1-1,1.2a2.11,2.11,0,0,1-1.08.44.81.81,0,0,1-.86.22L60,74.1a2.32,2.32,0,0,1-.16.27q-2.46,1.44-3.89,0l-.11-.11q-.52-.51-.18-1.67-.38-.38.84-2.17-.15-.5.58-1.57,1.37-1.86,1-2.28A1.27,1.27,0,0,1,58,66q-1.89-1.45-2.12-1.22l-.32.33a5.27,5.27,0,0,1-.8.6,2.77,2.77,0,0,0-.32.65q-1.1.52-1.35.28A27.15,27.15,0,0,1,50.59,65a5.36,5.36,0,0,0-2.22-.68q-.15-.15-1.19,0-.15.09-1.63-1.07l-.43-.1q-.68-1.15-.34-1.51t0-.86q1.08-1.83.63-2.27a2.51,2.51,0,0,0-.61-1.67l-.5-1.56q.13-.14-.28-.7.21-.24-.06-1,.19-.19-.12-1.19A1.31,1.31,0,0,0,44,51.68Z"/><path class="cls-10" d="M61.2,38.81l.33-.25,2-.56a3.16,3.16,0,0,1,2.8,1.44s.16.09.36.35l.25.33a8.56,8.56,0,0,0,.95,2.76l.16.09a13,13,0,0,0,1.41,3.77l.06,0a1.46,1.46,0,0,0,.22.7l.81,1.06a1,1,0,0,1,.22,1,3.08,3.08,0,0,0,.64.56.62.62,0,0,0,.07.26l.39.35q.52,1,1.06,1.83Q76.5,56,76.68,56.24a1.77,1.77,0,0,1,0,.6l.66.87q1,2,.31,2.49a3.38,3.38,0,0,1-.78.93l.2.26a1.35,1.35,0,0,0,.54.43,5.89,5.89,0,0,1,.15,1.59.64.64,0,0,1-.21.26l-.08.06-1.14-.4q-.76-1.32,0-1.92l0-.29a5.08,5.08,0,0,1-2.54-1.54,5.81,5.81,0,0,1-1.11-1L72.35,58a1.63,1.63,0,0,1-.24-.88l-5.72-6a1.26,1.26,0,0,0-.21-.56L64.61,49q-.89-1.46-1.49-2.25l-.51-.67a1.35,1.35,0,0,1-.19-.79L62.21,45q-.29-.38-.87-1a5.55,5.55,0,0,0-1-2,1,1,0,0,0,0-1.13q.15-.12,0-1.07A3.74,3.74,0,0,1,61.2,38.81Z"/><path class="cls-11" d="M87.66,25.32l.68-.36a3.09,3.09,0,0,0,1.53-.37,9.07,9.07,0,0,0,1.43-.24,4.28,4.28,0,0,0,1.23,0q.19-.1,1.35.93.41-.21,1.47,1.47l.11.54.28.54a2.71,2.71,0,0,1,.17,1.81q.2.39-1.84,1.92a6.88,6.88,0,0,1-1.11.67l-1.23-.21q-.05-.1-.83-.26-.68-1.28-3-.07l-.14.07a10.57,10.57,0,0,0-2.06,2.81q-.57.3-.31,1.54a2,2,0,0,0-.17,1.47l.42,2.11a.77.77,0,0,1-.13.24.89.89,0,0,1,.35.33.15.15,0,0,0-.06.21,5.17,5.17,0,0,0,2.35,1.35l1.73-.65q.63-1.09.45-1.44-.09-.17.12-.58L90,38.42q-.61-2.27.89-3.06a1.29,1.29,0,0,1,1.33.07q.51-.27,1.7,1.43a4.17,4.17,0,0,0,1.28.79q3.16,4.2,3.69,5l0,1.37a18.33,18.33,0,0,1,1.31,2q.67,1.61,1.11,2.43l0,.07c0,.15-.06.35-.29.59a3.52,3.52,0,0,1-1.23.13l-1.31.95a6,6,0,0,1-3.18-.14l-.14-.1-.39-.74q-.36-.68-.49-.6v-.17l-.53-1q-1.48-2-2.35-1.52a6.63,6.63,0,0,1-1.77.24l0,.07a1.52,1.52,0,0,1-1.4,0,1.23,1.23,0,0,1-1.16-.08,11.48,11.48,0,0,0-2.6-.35,1.32,1.32,0,0,1-1,0q-.37.2-.89-.22-.65.24-1.14-.69a2,2,0,0,0-.19-1,26.1,26.1,0,0,0-2.53-3.5l0-1.88a3,3,0,0,1,.07-1.5q-.16-.3.66-1.21-.24-.46.32-1A2.72,2.72,0,0,1,80,32.9a9.43,9.43,0,0,1,1.39-2.11,2.73,2.73,0,0,0,.76-1l2.94-2.93.51-.18.68-.36Q87.44,25.44,87.66,25.32Z"/><path class="cls-12" d="M119.93,11.53a1.8,1.8,0,0,1,1.65.47q.39-.1,1.19,1.5a2.28,2.28,0,0,1,0,1.31l.13.48a18.21,18.21,0,0,0,.57,1.76q0,.11.33,3.13a.08.08,0,0,1,.12.07.74.74,0,0,1-.34.29l.1.39q.95.14,1.1.72a3.18,3.18,0,0,0,1,1.76q.92,3.49.07,3.71-.35,3.17-.9,3.46.21.81-1.68,1.65l-.09,0A4.34,4.34,0,0,1,121,29.77a2.22,2.22,0,0,0-1.53-1.22q-2.17.16-2.24-.1l-.39.1a16.43,16.43,0,0,1-2.38,2,22.85,22.85,0,0,1-.36,2.82l0,.09.24.55a.73.73,0,0,0,0,.3,4.34,4.34,0,0,1,.48,1.08q.07,1.4.1,1.49l.07.28a13.61,13.61,0,0,0,.71,1.93,4.59,4.59,0,0,1-.18,1.57q.07.26-.42,1.12.18.68-2.46,1.75a1.87,1.87,0,0,1-2.16-.54,8.6,8.6,0,0,1-1.93-2.31,1.45,1.45,0,0,1-1.61-.78,16.81,16.81,0,0,0,0-2.13q.82-.49.88-.85l-.47-1.79a18.79,18.79,0,0,0-.28-2.95q.13,0-.08-1.5a20.79,20.79,0,0,1-2.2-5.26,43.73,43.73,0,0,0-1.59-4.81q-.77-2.9,1.65-4.07,1.48-.39,4.67.88a2.09,2.09,0,0,1,1.3.37,4.13,4.13,0,0,1,1.21.39,2.06,2.06,0,0,1,1.09.3q.44-.12,1.1.72a4.23,4.23,0,0,0,1.85.12c.08.32.25.45.5.38l.45-.24q.45.79.89.67l.79-.09a1,1,0,0,0,.11-.34l-.1-.37L117,19.05a16.57,16.57,0,0,1-1.47-2.14l-.2-.74a1.41,1.41,0,0,1,.93-1.77.43.43,0,0,1,.6.33l.28-.07-.1-.37.09,0,1,.65.18,0a8.46,8.46,0,0,0,.48-2.44A2.15,2.15,0,0,1,119.93,11.53Z"/><path class="cls-13" d="M157.81,35.56l-2.4-.47.47-2.4.47-2.4.47-2.4.47-2.4.47-2.4.47-2.4.47-2.4.47-2.4.47-2.4,2.4.47,2.4.47,2.4.47,2.4.47,2.4.47,2.4.47-.47,2.4-.47,2.4-2.4-.47-2.4-.47-2.4-.47-2.4-.47-.47,2.4-.47,2.4-.47,2.4-.47,2.4-.47,2.4-.47,2.4L160.2,36Zm14.38,2.84-2.4-.47.47-2.4.47-2.4.47-2.4.47-2.4.47-2.4.47-2.4.47-2.4,2.4.47,2.4.47-.47,2.4-.47,2.4-.47,2.4-.47,2.4-.47,2.4-.47,2.4-.47,2.4ZM187.49,24l-2.4-.47-2.4-.47-2.4-.47-2.4-.47.47-2.4.47-2.4,2.4.47,2.4.47,2.4.47,2.4.47L188,21.6Zm-.92,17.25-2.4-.47.47-2.4.47-2.4.47-2.4.47-2.4.47-2.4.47-2.4.47-2.4,2.4.47,2.4.47-.47,2.4-.47,2.4-.47,2.4-.47,2.4-.47,2.4-.47,2.4-.47,2.4Z"/><path class="cls-14" d="M205,44.07l-2.14-1.18-2.14-1.18L202,39.57l1.18-2.14,1.18-2.14,1.18-2.14L206.69,31l2.14,1.18L211,33.39l1.18-2.14,1.18-2.14,2.14,1.18,2.14,1.18,2.14,1.18,2.14,1.18L224,35l2.14,1.18L225,38.35l-1.18,2.14-1.18,2.14-1.18,2.14-2.14-1.18-2.14-1.18L216,44.53l-2.14-1.18-2.14-1.18L209.55,41l-2.14-1.18-1.18,2.14Zm8.32,10.19-2.14-1.18-2.14-1.18L207,50.71l-2.14-1.18-2.14-1.18,1.18-2.14L205,44.07l2.14,1.18,2.14,1.18,2.14,1.18,2.14,1.18,1.18-2.14,2.14,1.18L219.05,49l-1.18,2.14-1.18,2.14-1.18,2.14Zm2.82-15.19,2.14,1.18,1.18-2.14-2.14-1.18-2.14-1.18-2.14-1.18L211,33.39l-1.18,2.14,2.14,1.18,2.14,1.18Z"/><path class="cls-15" d="M231.19,61.28l-1.78-1.68-1.78-1.68,1.68-1.78L231,54.37l1.68-1.78,1.68-1.78L236,49l1.78,1.68,1.78,1.68,1.68-1.78,1.68-1.78,1.78,1.68,1.78,1.68,1.78,1.68L250,55.54l1.78,1.68,1.78,1.68-1.68,1.78-1.68,1.78-1.68,1.78L246.88,66l-1.78-1.68-1.78-1.68-1.68,1.78-1.78-1.68-1.78-1.68-1.78-1.68-1.78-1.68-1.68,1.78Zm5.54,11.93L235,71.54l-1.78-1.68-1.78-1.68-1.78-1.68-1.78-1.68,1.68-1.78,1.68-1.78L233,63l1.78,1.68,1.78,1.68L238.3,68,240,66.21l1.78,1.68,1.78,1.68-1.68,1.78-1.68,1.78-1.68,1.78Zm6.5-14L245,60.87l1.68-1.78-1.78-1.68-1.78-1.68-1.78-1.68-1.78-1.68-1.68,1.78,1.78,1.68,1.78,1.68Z"/><path class="cls-16" d="M250.88,91.31l-1.37-2,2-1.37,2-1.37,1.37,2,1.37,2-2,1.37-2,1.37Zm2.68-4.76-1.37-2-1.37-2,2-1.37,2-1.37,2-1.37,2-1.37,2-1.37-1.37-2,2-1.37,2-1.37,1.37,2,2-1.37,2-1.37,1.37,2,1.37,2-2,1.37-2,1.37,1.37,2-2,1.37-2,1.37-1.37-2-2,1.37-2,1.37-2,1.37-2,1.37Z"/><path class="cls-17" d="M261.43,111.74l-.91-2.27-.91-2.27-.91-2.27-.91-2.27,2.27-.91,2.27-.91.91,2.27.91,2.27.91,2.27.91,2.27.91,2.27-2.27.91-2.27.91Zm5.44.45,2.27-.91,2.27-.91.91,2.27.91,2.27-2.27.91-2.27.91-.91-2.27Zm4.53-1.82-.91-2.27-.91-2.27-.91-2.27,2.27-.91,2.27-.91.91,2.27.91,2.27.91,2.27-2.27.91Zm1.81-8.62-.91-2.27-.91-2.27,2.27-.91,2.27-.91.91,2.27.91,2.27-2.27.91Zm8.17,7.25-.91-2.27-.91-2.27-.91-2.27-.91-2.27L280,99l2.27-.91.91,2.27.91,2.27.91,2.27.91,2.27.91,2.27-2.27.91-2.27.91Z"/><path class="cls-18" d="M270,159.3l0-2.44,2.44,0,2.44,0,0,2.44,0,2.44-2.44,0-2.44,0Zm4.92-2.36,0-2.44,0-2.44,2.44,0,2.44,0,2.44,0,2.44,0,2.44,0,0-2.44,2.44,0,2.44,0,0,2.44,2.44,0,2.44,0,0,2.44,0,2.44-2.44,0-2.44,0,0,2.44-2.44,0-2.44,0,0-2.44-2.44,0-2.44,0-2.44,0-2.44,0Z"/><path class="cls-19" d="M265.6,189.32l.55-2.38.55-2.38.55-2.38.55-2.38.55-2.38,2.38.55,2.38.55-.55,2.38-.55,2.38-.55,2.38-.55,2.38,2.38.55-.55,2.38-.55,2.38-2.38-.55-2.38-.55-2.38-.55Zm7.49-10.81.55-2.38.55-2.38,2.38.55,2.38.55,2.38.55,2.38.55,2.38.55-.55,2.38-.55,2.38,2.38.55,2.38.55-.55,2.38-.55,2.38-.55,2.38-.55,2.38-.55,2.38-.55,2.38-2.38-.55-2.38-.55-2.38-.55-2.38-.55.55-2.38.55-2.38-2.38-.55.55-2.38.55-2.38.55-2.38.55-2.38-2.38-.55Zm7.88,9.33-.55,2.38,2.38.55.55-2.38.55-2.38.55-2.38.55-2.38-2.38-.55-.55,2.38-.55,2.38Z"/><path class="cls-20" d="M254.93,214.73l1.15-2.16,1.15-2.16,1.14-2.16,1.15-2.16,2.16,1.15,2.16,1.14-1.14,2.16-1.15,2.16-1.14,2.16L259.25,217l-1.15,2.16L255.95,218l-2.16-1.14Zm3.17,4.45,2.16,1.15,2.16,1.15-1.15,2.16-1.14,2.16L258,224.64l-2.16-1.15,1.15-2.16Zm5.33,5.59,1.15-2.16,2.16,1.14,2.16,1.15-1.15,2.16-1.14,2.16-2.16-1.15-2.16-1.15Zm.4-16.38,1.15-2.16,1.14-2.16,2.16,1.14,2.16,1.15,2.16,1.15,2.16,1.15,2.16,1.15L275.77,212l-1.15,2.16L272.46,213l-2.16-1.15-2.16-1.15L266,209.53Zm5.07,16.51,1.15-2.16,1.14-2.16,1.15-2.16,1.14-2.16,1.15-2.16,2.16,1.15,2.16,1.15-1.14,2.16-1.15,2.16-1.14,2.16L274.36,225l-1.14,2.16L271.05,226Z"/><path class="cls-21" d="M233.87,242.46l1.66-1.79,1.79,1.66,1.79,1.66,1.79,1.66,1.79,1.66,1.79,1.66,1.79,1.66-1.66,1.79L243,254.22l-1.79-1.66-1.79-1.66-1.79-1.66-1.79-1.66L234,245.91l-1.79-1.66Zm10-10.75,1.66-1.79,1.79,1.66,1.79,1.66,1.79,1.66,1.79,1.66,1.79,1.66,1.79,1.66,1.79,1.66,1.79,1.66,1.79,1.66,1.79,1.66,1.79,1.66,1.79,1.66-1.66,1.79-1.66,1.79-1.79-1.66-1.79-1.66-1.79-1.66-1.79-1.66-1.79-1.66-1.79-1.66-1.66,1.79-1.66,1.79-1.79-1.66L246,243.73l1.66-1.79,1.66-1.79-1.79-1.66-1.79-1.66L244,235.16l-1.79-1.66Zm2.44,18.92,1.66-1.79,1.66-1.79,1.79,1.66,1.79,1.66-1.66,1.79L249.86,254l-1.79-1.66Z"/></svg>