<svg id="Capa_1" data-name="Capa 1" xmlns="http://www.w3.org/2000/svg" viewBox="0 0 60.95 87.23">
    <defs>
        <style>.cls-1{fill:#606060;}</style>
    </defs>
    <title>gsierra</title>
    <path class="cls-1"
          d="M30.48,61A30.51,30.51,0,0,0,61,30.48a30.93,30.93,0,0,0-.17-3.22l-.09-.89-30.21,0v9.2H51.13A21.28,21.28,0,0,1,30.48,51.75"/>
    <path d="M30.48,51.75A21.28,21.28,0,1,1,49.31,20.62l.28.54h9.9L59,19.81A30.46,30.46,0,1,0,30.48,61"/>
    <path d="M30.48,35.48A21.28,21.28,0,1,1,11.64,66.61l-.28-.54H1.46L2,67.42A30.46,30.46,0,1,0,30.48,26.27"/>
</svg>