<svg id="Capa_1" data-name="Capa 1" xmlns="http://www.w3.org/2000/svg" viewBox="0 0 184.48 113.39">
    <defs>
        <style>.cls-1{fill:#606060;}</style>
    </defs>
    <title>gsierra_side</title>
    <path class="cls-1"
          d="M47.19,72.13A30.51,30.51,0,0,0,77.66,41.65a30.93,30.93,0,0,0-.17-3.22l-.09-.89-30.21,0v9.2H67.83A21.28,21.28,0,0,1,47.19,62.93"/>
    <path d="M47.19,62.93A21.28,21.28,0,1,1,66,31.8l.28.54h9.9L75.7,31A30.46,30.46,0,1,0,47.19,72.13"/>
    <path d="M47.19,46.65A21.28,21.28,0,1,1,28.35,77.78l-.28-.54h-9.9l.51,1.35A30.46,30.46,0,1,0,47.19,37.45"/>
    <path class="cls-1"
          d="M101,50.35v-13h4.45v13a8.24,8.24,0,0,1-2.61,6.13,9.09,9.09,0,0,1-12.58,0,8.24,8.24,0,0,1-2.61-6.13v-13h4.45v13a4.45,4.45,0,0,0,8.9,0Z"/>
    <path class="cls-1" d="M111,37.39h4.42V58.81H111Z"/>
    <path class="cls-1" d="M125.35,37.39V54.53h8.84v4.28H120.93V37.39Z"/>
    <path class="cls-1" d="M143.33,37.39V54.53h8.84v4.28H138.91V37.39Z"/>
    <path class="cls-1" d="M170.14,37.34v4.29H161.3v4.32h6.63v4.29H161.3v4.32h8.84v4.28H156.88V37.34Z"/>
    <path d="M87.75,77.32h4.38V98.57H87.75Z"/>
    <path d="M109.33,77.27v4.26h-8.77v4.28h6.58v4.26h-6.58v4.28h8.77V98.6H96.17V77.27Z"/>
    <path d="M112.56,77.32h7.12a8.12,8.12,0,0,1,5.71,2.16,5.92,5.92,0,0,1,2.11,4.83v.55a6.76,6.76,0,0,1-1.38,4,5,5,0,0,1-2.61,2l5.07,7.7h-5.36L117,89.17v9.4h-4.38ZM123,84.44a2.83,2.83,0,0,0-.87-2,4.16,4.16,0,0,0-2.71-.84h-2.46v5.87h3.15A3,3,0,0,0,123,84.44Z"/>
    <path d="M131.8,77.32h7.12a8.12,8.12,0,0,1,5.71,2.16,5.92,5.92,0,0,1,2.11,4.83v.55a6.76,6.76,0,0,1-1.38,4,5,5,0,0,1-2.61,2l5.07,7.7h-5.36l-6.27-9.4v9.4h-4.38Zm10.42,7.12a2.83,2.83,0,0,0-.87-2,4.16,4.16,0,0,0-2.71-.84h-2.46v5.87h3.15A3,3,0,0,0,142.22,84.44Z"/>
    <path d="M160.18,76.89l10,21.69h-4.75l-1.48-3.23h-7.47L155,98.57h-4.74Zm2,14.69-2-4.5-2,4.5Z"/>
</svg>