<svg id="Capa_1" data-name="Capa 1" xmlns="http://www.w3.org/2000/svg" viewBox="0 0 184.48 113.39">
    <defs>
        <style>.cls-1{fill:#2e6da4;}.cls-2{fill:#fff;}</style>
    </defs>
    <title>gsierra_side_b</title>
    <path class="cls-1"
          d="M46,73.93A30.51,30.51,0,0,0,76.48,43.46a30.93,30.93,0,0,0-.17-3.22l-.09-.89L46,39.36v9.2H66.65A21.28,21.28,0,0,1,46,64.73"/>
    <path class="cls-2" d="M46,64.73A21.28,21.28,0,1,1,64.84,33.6l.28.54H75l-.51-1.35A30.46,30.46,0,1,0,46,73.93"/>
    <path class="cls-2" d="M46,48.46A21.28,21.28,0,1,1,27.16,79.59l-.28-.54H17l.51,1.35A30.46,30.46,0,1,0,46,39.25"/>
    <path class="cls-1"
          d="M99.82,52.15v-13h4.45v13a8.24,8.24,0,0,1-2.61,6.13,9.09,9.09,0,0,1-12.58,0,8.24,8.24,0,0,1-2.61-6.13v-13h4.45v13a4.45,4.45,0,0,0,8.9,0Z"/>
    <path class="cls-1" d="M109.8,39.19h4.42V60.62H109.8Z"/>
    <path class="cls-1" d="M124.17,39.19V56.34H133v4.28H119.75V39.19Z"/>
    <path class="cls-1" d="M142.14,39.19V56.34H151v4.28H137.72V39.19Z"/>
    <path class="cls-1" d="M169,39.14v4.29h-8.84v4.32h6.63V52h-6.63v4.32H169v4.28H155.69V39.14Z"/>
    <path class="cls-2" d="M86.56,79.13h4.38v21.25H86.56Z"/>
    <path class="cls-2" d="M108.14,79.08v4.26H99.37v4.28h6.58v4.26H99.37v4.28h8.77v4.25H95V79.08Z"/>
    <path class="cls-2"
          d="M111.37,79.13h7.12a8.12,8.12,0,0,1,5.71,2.16,5.92,5.92,0,0,1,2.11,4.83v.55a6.76,6.76,0,0,1-1.38,4,5,5,0,0,1-2.61,2l5.07,7.7H122L115.77,91v9.4h-4.38Zm10.42,7.12a2.83,2.83,0,0,0-.87-2,4.16,4.16,0,0,0-2.71-.84h-2.46v5.87h3.15A3,3,0,0,0,121.79,86.25Z"/>
    <path class="cls-2"
          d="M130.62,79.13h7.12a8.12,8.12,0,0,1,5.71,2.16,5.92,5.92,0,0,1,2.11,4.83v.55a6.76,6.76,0,0,1-1.38,4,5,5,0,0,1-2.61,2l5.07,7.7h-5.36L135,91v9.4h-4.38ZM141,86.25a2.83,2.83,0,0,0-.87-2,4.16,4.16,0,0,0-2.71-.84H135v5.87h3.15A3,3,0,0,0,141,86.25Z"/>
    <path class="cls-2" d="M159,78.69l10,21.69h-4.75l-1.48-3.23h-7.47l-1.48,3.23H149Zm2,14.69-2-4.5-2,4.5Z"/>
</svg>