<svg id="Capa_1" data-name="Capa 1" xmlns="http://www.w3.org/2000/svg" viewBox="0 0 113.39 113.39"><defs><style>.cls-1{fill:#fff;}.cls-2{fill:#2e6da4;}.cls-3{fill:#122b40;}</style></defs><title>gsierra_circ</title><circle class="cls-1" cx="56.69" cy="56.69" r="55.24"/><path class="cls-2" d="M56.69,77.41A36.45,36.45,0,0,0,93.1,41a37,37,0,0,0-.21-3.85l-.11-1.07-36.08,0v11H81.36A25.42,25.42,0,0,1,56.69,66.41"/><path class="cls-3" d="M56.69,66.41a25.42,25.42,0,1,1,22.5-37.19l.34.64H91.36l-.61-1.61A36.39,36.39,0,1,0,56.69,77.41"/><path class="cls-3" d="M56.69,47a25.42,25.42,0,1,1-22.5,37.19l-.34-.64H22l.61,1.61A36.39,36.39,0,1,0,56.69,36"/></svg>