<svg id="Capa_1" data-name="Capa 1" xmlns="http://www.w3.org/2000/svg" viewBox="0 0 113.39 113.39"><defs><style>.cls-1{fill:#fff;}.cls-2{fill:#2e6da4;}.cls-3{fill:#122b40;}</style></defs><title>gsierra_bg</title><rect class="cls-1" y="0.28" width="112.82" height="112.82"/><path class="cls-2" d="M56.69,79.12A39.46,39.46,0,0,0,96.11,39.7a40,40,0,0,0-.23-4.17l-.12-1.16-39.07,0v11.9H83.4A27.52,27.52,0,0,1,56.69,67.22"/><path class="cls-3" d="M56.69,67.22A27.52,27.52,0,1,1,81.05,27l.36.69H94.22l-.66-1.75A39.4,39.4,0,1,0,56.69,79.12"/><path class="cls-3" d="M56.69,46.17A27.52,27.52,0,1,1,32.33,86.43L32,85.74H19.16l.66,1.75A39.4,39.4,0,1,0,56.69,34.27"/></svg>