<svg id="Capa_1" data-name="Capa 1" xmlns="http://www.w3.org/2000/svg" viewBox="0 0 361.79 113.39"><defs><style>.cls-1{fill:#74acdf;}.cls-2{fill:#122b40;}</style></defs><title>gsierra_side</title><path class="cls-1" d="M69.78,72.84a30.51,30.51,0,0,0,30.48-30.48,30.93,30.93,0,0,0-.17-3.22l-.09-.89-30.21,0v9.2H90.43A21.28,21.28,0,0,1,69.78,63.64"/><path class="cls-2" d="M69.78,63.64A21.28,21.28,0,1,1,88.61,32.51l.28.54h9.9l-.51-1.35A30.46,30.46,0,1,0,69.78,72.84"/><path class="cls-2" d="M69.78,47.36A21.28,21.28,0,1,1,50.94,78.49L50.66,78h-9.9l.51,1.35A30.46,30.46,0,1,0,69.78,38.16"/><path class="cls-1" d="M131.45,52.46V38.18h4.78v14.3a9.55,9.55,0,0,1-19.1,0V38.18h4.78V52.46a4.78,4.78,0,0,0,9.55,0Z"/><path class="cls-1" d="M146.66,38.18h4.75V61.79h-4.75Z"/><path class="cls-1" d="M166.58,38.18v18.9h9.49v4.72H161.84V38.18Z"/><path class="cls-1" d="M190.37,38.18v18.9h9.49v4.72H185.62V38.18Z"/><path class="cls-1" d="M223.65,38.12v4.73h-9.49v4.76h7.12v4.73h-7.12V57.1h9.49v4.72H209.41V38.12Z"/><path class="cls-1" d="M233.2,38.18h7.71a8.67,8.67,0,0,1,6.18,2.4,6.66,6.66,0,0,1,2.29,5.36v.62a7.64,7.64,0,0,1-1.49,4.5,5.38,5.38,0,0,1-2.83,2.18l5.49,8.55h-5.8L238,51.35V61.79h-4.75Zm11.28,7.91a3.19,3.19,0,0,0-.94-2.27,4.43,4.43,0,0,0-2.93-.94h-2.67V49.4h3.41A3.25,3.25,0,0,0,244.48,46.09Z"/><path class="cls-1" d="M271.65,53.48l11.56-15.86V61.79h-4.75V52l-6.81,9.4L264.83,52v9.79h-4.75V37.62Z"/><path class="cls-1" d="M313.21,41.52a11.94,11.94,0,0,1,0,16.95A12,12,0,0,1,292.76,50a12,12,0,0,1,20.45-8.48Zm-13.55,3.37a7.18,7.18,0,0,0,0,10.17,7.18,7.18,0,1,0,10.15-10.17,7.16,7.16,0,0,0-10.15,0Z"/><path class="cls-2" d="M119.6,76.9h4.75v23.61H119.6Z"/><path class="cls-2" d="M149,76.84v4.73h-9.49v4.76h7.12v4.73h-7.12v4.76H149v4.72H134.78V76.84Z"/><path class="cls-2" d="M158.57,76.9h7.71a8.67,8.67,0,0,1,6.18,2.4,6.66,6.66,0,0,1,2.29,5.36v.62a7.64,7.64,0,0,1-1.49,4.5A5.38,5.38,0,0,1,170.42,92l5.49,8.55h-5.8l-6.78-10.44v10.44h-4.75Zm11.28,7.91a3.19,3.19,0,0,0-.94-2.27A4.43,4.43,0,0,0,166,81.6h-2.67v6.52h3.41A3.25,3.25,0,0,0,169.85,84.81Z"/><path class="cls-2" d="M185.45,76.9h7.71a8.67,8.67,0,0,1,6.18,2.4,6.66,6.66,0,0,1,2.29,5.36v.62a7.64,7.64,0,0,1-1.49,4.5A5.38,5.38,0,0,1,197.3,92l5.49,8.55H197l-6.78-10.44v10.44h-4.75Zm11.28,7.91a3.19,3.19,0,0,0-.94-2.27,4.43,4.43,0,0,0-2.93-.94h-2.67v6.52h3.41A3.25,3.25,0,0,0,196.73,84.81Z"/><path class="cls-2" d="M222.22,76.42,233,100.51h-5.14l-1.6-3.59h-8.09l-1.6,3.59h-5.13Zm2.17,16.32-2.15-5-2.18,5Z"/></svg>