<svg id="Capa_1" data-name="Capa 1" xmlns="http://www.w3.org/2000/svg" viewBox="0 0 361.79 113.39"><defs><style>.cls-1{fill:#2e6da4;}.cls-2{fill:#122b40;}</style></defs><title>gsierra_side</title><path class="cls-1" d="M69.78,72.84a30.51,30.51,0,0,0,30.48-30.48,30.93,30.93,0,0,0-.17-3.22l-.09-.89-30.21,0v9.2H90.43A21.28,21.28,0,0,1,69.78,63.64"/><path class="cls-2" d="M69.78,63.64A21.28,21.28,0,1,1,88.61,32.51l.28.54h9.9l-.51-1.35A30.46,30.46,0,1,0,69.78,72.84"/><path class="cls-2" d="M69.78,47.36A21.28,21.28,0,1,1,50.94,78.49L50.66,78h-9.9l.51,1.35A30.46,30.46,0,1,0,69.78,38.16"/><path class="cls-1" d="M132.32,52.21V37.93h4.78v14.3a9.55,9.55,0,0,1-19.1,0V37.93h4.78V52.21a4.78,4.78,0,0,0,9.55,0Z"/><path class="cls-1" d="M147.53,37.93h4.75V61.54h-4.75Z"/><path class="cls-1" d="M167.45,37.93v18.9h9.49v4.72H162.7V37.93Z"/><path class="cls-1" d="M191.24,37.93v18.9h9.49v4.72H186.49V37.93Z"/><path class="cls-1" d="M224.52,37.87V42.6H215v4.76h7.12v4.73H215v4.76h9.49v4.72H210.28V37.87Z"/><path class="cls-1" d="M234.07,37.93h7.71a8.67,8.67,0,0,1,6.18,2.4,6.66,6.66,0,0,1,2.29,5.36v.62a7.64,7.64,0,0,1-1.49,4.5A5.38,5.38,0,0,1,245.92,53l5.49,8.55h-5.8L238.83,51.1V61.54h-4.75Zm11.28,7.91a3.19,3.19,0,0,0-.94-2.27,4.43,4.43,0,0,0-2.93-.94h-2.67v6.52h3.41A3.25,3.25,0,0,0,245.35,45.84Z"/><path class="cls-1" d="M272.52,53.24l11.56-15.86V61.54h-4.75V51.76l-6.81,9.4-6.83-9.4v9.79H261V37.37Z"/><path class="cls-1" d="M314.08,41.27a11.94,11.94,0,0,1,0,16.95,12,12,0,0,1-20.45-8.47,12,12,0,0,1,20.45-8.48Zm-13.55,3.37a7.18,7.18,0,0,0,0,10.17,7.18,7.18,0,1,0,10.15-10.17,7.16,7.16,0,0,0-10.15,0Z"/><path class="cls-2" d="M119.6,75.9h4.75V99.51H119.6Z"/><path class="cls-2" d="M149,75.84v4.73h-9.49v4.76h7.12v4.73h-7.12v4.76H149v4.72H134.78V75.84Z"/><path class="cls-2" d="M158.57,75.9h7.71a8.67,8.67,0,0,1,6.18,2.4,6.66,6.66,0,0,1,2.29,5.36v.62a7.64,7.64,0,0,1-1.49,4.5A5.38,5.38,0,0,1,170.42,91l5.49,8.55h-5.8l-6.78-10.44V99.51h-4.75Zm11.28,7.91a3.19,3.19,0,0,0-.94-2.27A4.43,4.43,0,0,0,166,80.6h-2.67v6.52h3.41A3.25,3.25,0,0,0,169.85,83.81Z"/><path class="cls-2" d="M185.45,75.9h7.71a8.67,8.67,0,0,1,6.18,2.4,6.66,6.66,0,0,1,2.29,5.36v.62a7.64,7.64,0,0,1-1.49,4.5A5.38,5.38,0,0,1,197.3,91l5.49,8.55H197l-6.78-10.44V99.51h-4.75Zm11.28,7.91a3.19,3.19,0,0,0-.94-2.27,4.43,4.43,0,0,0-2.93-.94h-2.67v6.52h3.41A3.25,3.25,0,0,0,196.73,83.81Z"/><path class="cls-2" d="M222.22,75.42,233,99.51h-5.14l-1.6-3.59h-8.09l-1.6,3.59h-5.13Zm2.17,16.32-2.15-5-2.18,5Z"/></svg>