<svg id="Capa_1" data-name="Capa 1" xmlns="http://www.w3.org/2000/svg" viewBox="0 0 113.39 113.39">
    <defs>
        <style>.cls-1{fill:#fff;}.cls-2{fill:#2e6da4;}.cls-3{fill:#122b40;}</style>
    </defs>
    <title>gsierra_circ</title>
    <circle class="cls-1" cx="56.69" cy="56.69" r="55.24"/>
    <path class="cls-2"
          d="M56.69,74A30.51,30.51,0,0,0,87.17,43.56,30.93,30.93,0,0,0,87,40.33l-.09-.89-30.21,0v9.2H77.34A21.28,21.28,0,0,1,56.69,64.83"/>
    <path class="cls-3" d="M56.69,64.83A21.28,21.28,0,1,1,75.53,33.7l.28.54h9.9l-.51-1.35A30.46,30.46,0,1,0,56.69,74"/>
    <path class="cls-3"
          d="M56.69,48.55A21.28,21.28,0,1,1,37.86,79.69l-.28-.54h-9.9l.51,1.35A30.46,30.46,0,1,0,56.69,39.35"/>
</svg>