<svg id="Capa_1" data-name="Capa 1" xmlns="http://www.w3.org/2000/svg" viewBox="0 0 141.73 141.73">
    <defs>
        <style>.cls-1{fill:#85a9db;}.cls-2{fill:#212f41;}</style>
    </defs>
    <title>autoqe</title>
    <path class="cls-1"
          d="M81.36,81.29c8.41,24.14,31.29,28.6,45.69,19.88a30.39,30.39,0,0,0,14.07-20c-.08.36-.16.72-.26,1.08a30.53,30.53,0,0,1-4.78,10.45,30.41,30.41,0,0,1-19.91,12.06,28.59,28.59,0,0,1-11.48-.6,30.53,30.53,0,0,1-10.45-4.78,30.72,30.72,0,0,1-12.13-20,28.59,28.59,0,0,1,.6-11.48,30.53,30.53,0,0,1,4.78-10.45,31.29,31.29,0,0,1,8.81-8,30.2,30.2,0,0,1,11.1-4,28,28,0,0,1,11.48.6,30.53,30.53,0,0,1,10.45,4.78,29.07,29.07,0,0,1,8,8.81,31,31,0,0,1,3.84,9.89A30.48,30.48,0,0,0,95.46,49C44.82,79.77,75.39,64.15,81.36,81.29Z"/>
    <path class="cls-1"
          d="M129.33,50.76A30.53,30.53,0,0,0,118.87,46a28,28,0,0,0-11.48-.6,30.2,30.2,0,0,0-11.1,4,31.29,31.29,0,0,0-8.81,8A30.53,30.53,0,0,0,82.7,67.89a28.59,28.59,0,0,0-.6,11.48,30.72,30.72,0,0,0,12.13,20,30.53,30.53,0,0,0,10.45,4.78,28.59,28.59,0,0,0,11.48.6,30.41,30.41,0,0,0,19.91-12.06,30.53,30.53,0,0,0,4.78-10.45c.1-.36.18-.72.26-1.08a30.47,30.47,0,0,0,.09-11.72,31,31,0,0,0-3.84-9.89A29.07,29.07,0,0,0,129.33,50.76Zm1.22,21.78a21,21,0,0,1-.22,7.4,21.28,21.28,0,0,1-2.9,6.74A16.45,16.45,0,0,1,122,91.83a16.09,16.09,0,0,1-7.08,2.43,19.09,19.09,0,0,1-7.32-.55A19.9,19.9,0,0,1,93.17,77.65a21,21,0,0,1,.22-7.4,21.28,21.28,0,0,1,2.9-6.74,16.45,16.45,0,0,1,5.43-5.14,16.82,16.82,0,0,1,7.08-2.43,17.32,17.32,0,0,1,7.32.55,19.51,19.51,0,0,1,6.66,3.23,20.33,20.33,0,0,1,5.17,5.71A19.26,19.26,0,0,1,130.55,72.54Z"/>
    <path class="cls-2"
          d="M60.19,67.48C51.11,43.59,28.11,39.77,14,48.89,6.52,53.68,2.81,62,.46,69.26c.11-.35.14-.73.23-1.09A30.53,30.53,0,0,1,5.18,57.59a28.9,28.9,0,0,1,8.48-8.22A29.07,29.07,0,0,1,24.74,45a28.59,28.59,0,0,1,11.49.28,30.53,30.53,0,0,1,10.58,4.49,29.07,29.07,0,0,1,8.29,8.58A29.07,29.07,0,0,1,59.5,69.42a28.59,28.59,0,0,1-.28,11.49,30.53,30.53,0,0,1-4.49,10.58,31.29,31.29,0,0,1-8.58,8.29,30.2,30.2,0,0,1-11,4.33,28,28,0,0,1-11.49-.28,30.53,30.53,0,0,1-10.58-4.49A29.07,29.07,0,0,1,4.8,90.76,31,31,0,0,1,.69,81,30.48,30.48,0,0,0,47,100.11C96.75,68,66.63,84.44,60.19,67.48Z"/>
    <path class="cls-2"
          d="M13.09,99.34a30.53,30.53,0,0,0,10.58,4.49,28,28,0,0,0,11.49.28,30.2,30.2,0,0,0,11-4.33,31.29,31.29,0,0,0,8.58-8.29,30.53,30.53,0,0,0,4.49-10.58,28.59,28.59,0,0,0,.28-11.49,29.07,29.07,0,0,0-4.39-11.09,29.07,29.07,0,0,0-8.29-8.58,30.53,30.53,0,0,0-10.58-4.49A28.59,28.59,0,0,0,24.74,45a29.07,29.07,0,0,0-11.09,4.39,28.9,28.9,0,0,0-8.48,8.22A30.53,30.53,0,0,0,.69,68.18c-.09.36-.16.72-.23,1.09A30.47,30.47,0,0,0,.69,81,31,31,0,0,0,4.8,90.76,29.07,29.07,0,0,0,13.09,99.34ZM11.26,77.6a21,21,0,0,1,0-7.4A21.28,21.28,0,0,1,14,63.38a16.45,16.45,0,0,1,5.29-5.3,16.09,16.09,0,0,1,7-2.63,19.09,19.09,0,0,1,7.33.35A19.9,19.9,0,0,1,48.48,71.44a21,21,0,0,1,0,7.4,21.28,21.28,0,0,1-2.71,6.82A16.45,16.45,0,0,1,40.47,91a16.82,16.82,0,0,1-7,2.63,17.32,17.32,0,0,1-7.33-.35,19.51,19.51,0,0,1-6.75-3,20.33,20.33,0,0,1-5.32-5.56A19.26,19.26,0,0,1,11.26,77.6Z"/>
    <circle class="cls-1" cx="29.78" cy="74.7" r="5.52"/>
    <circle class="cls-2" cx="112.25" cy="75.61" r="5.52"/>
</svg>
