<svg xmlns="http://www.w3.org/2000/svg" viewBox="0 0 167.17 167.17">
    <defs>
        <style>.cls-1{fill:url(#Degradado_sin_nombre_27);}</style>
        <linearGradient id="Degradado_sin_nombre_27" x1="32.4" y1="37.17" x2="134.74" y2="139.51"
                        gradientUnits="userSpaceOnUse">
            <stop offset="0" stop-color="#f68060"/>
            <stop offset="0.54" stop-color="#f0464e"/>
            <stop offset="1" stop-color="#ec1a41"/>
        </linearGradient>
    </defs>
    <title>immotchat</title>
    <g id="content">
        <path class="cls-1"
              d="M143.29,46.09,88.83,12.55a9.93,9.93,0,0,0-10.5,0L23.88,46.09a11.36,11.36,0,0,0-5.25,9.7V123a6.21,6.21,0,0,0,6,6.4l53,.39a2.89,2.89,0,0,1,1.9.74l27.92,24.85a3,3,0,0,0,4.92-2.46V132.54a3.11,3.11,0,0,1,3-3.2h27.17a6.21,6.21,0,0,0,6-6.4V55.79A11.36,11.36,0,0,0,143.29,46.09ZM57.66,90.88a7.3,7.3,0,1,1,7.3-7.3A7.3,7.3,0,0,1,57.66,90.88Zm26.55,0a7.3,7.3,0,1,1,7.3-7.3A7.3,7.3,0,0,1,84.21,90.88Zm26.55,0a7.3,7.3,0,1,1,7.3-7.3A7.3,7.3,0,0,1,110.76,90.88Z"/>
    </g>
</svg>
