<svg xmlns="http://www.w3.org/2000/svg" viewBox="0 0 216 216">
    <defs>
        <style>
            .cls-1{fill:#fff;}.cls-2{fill:#c7e5e2;}.cls-3,.cls-4{fill:#233345;}.cls-4{stroke:#233345;stroke-linecap:round;stroke-linejoin:round;stroke-width:5px;}.cls-5{fill:#e1f4ee;}
        </style>
    </defs>
    <title>hp-hypo</title>
    <g id="items">
        <circle class="cls-1" cx="108" cy="108" r="103.79" transform="translate(-15.91 18.69) rotate(-9.22)"/>
        <path class="cls-2"
              d="M184.22,31.78A107.79,107.79,0,0,0,31.78,184.22,107.79,107.79,0,0,0,184.22,31.78ZM108,211.79A103.79,103.79,0,1,1,211.79,108,103.79,103.79,0,0,1,108,211.79Z"/>
        <path class="cls-1"
              d="M48.47,161c4.93-6.71,23.26-8.72,33.26-9.32v-7.6c-11.65-1.65-22-4.42-29.07-8.33-4.21-2.32-6.7-6.18-8.17-10.73a13.11,13.11,0,0,1-12.93-13.09V99.65A13.1,13.1,0,0,1,44.37,86.57C51.6,59,77.61,38.51,108.51,38.51s57,20.5,64.15,48.1a13.11,13.11,0,0,1,11.93,13v12.29a13.1,13.1,0,0,1-12,13c-1.47,4.58-4,8.45-8.19,10.78-8.05,4.42-20.2,7.4-33.76,8.92v6.8c7.2.21,32.08,1.54,38,9.53.07.09,2.12,3,4.7,7.18a88.79,88.79,0,1,0-129.9.67C46.13,164.26,48.4,161.11,48.47,161Z"/>
        <path class="cls-1"
              d="M108.51,145.88a197.49,197.49,0,0,1-23.1-1.32v6.95l2.63-.07h38.88v-6.39C120.93,145.6,114.72,145.88,108.51,145.88Z"/>
        <path class="cls-3" d="M85.41,144.56c-1.24-.15-2.47-.3-3.68-.47v7.6c1.42-.08,2.66-.14,3.68-.18Z"/>
        <path class="cls-3" d="M126.92,151.44h2l1.64,0v-6.8c-1.21.14-2.44.26-3.68.37Z"/>
        <path class="cls-1"
              d="M130.6,155.16v1.06a1.84,1.84,0,0,1-1.84,1.84H83.57a1.85,1.85,0,0,1-1.84-1.84v-.84c-10.55.68-26.59,2.76-30.3,7.81A98.18,98.18,0,0,0,46,171.53a88.77,88.77,0,0,0,124.68-.63c-1.75-2.93-3.51-5.59-5.07-7.71C161.28,157.31,140.26,155.46,130.6,155.16Z"/>
        <path class="cls-1"
              d="M88.07,155.12c-1.65,0-3.84.1-6.34.26v.84a1.85,1.85,0,0,0,1.84,1.84h45.19a1.84,1.84,0,0,0,1.84-1.84v-1.06c-.6,0-1.16,0-1.67,0Z"/>
        <path class="cls-3"
              d="M81.73,155.38v-3.69c-10,.6-28.33,2.61-33.26,9.32-.07.1-2.34,3.25-5.11,7.85.85.91,1.73,1.8,2.63,2.67a98.18,98.18,0,0,1,5.44-8.34C55.14,158.14,71.18,156.06,81.73,155.38Z"/>
        <path class="cls-3"
              d="M130.6,151.48v3.68c9.66.3,30.68,2.15,35,8,1.56,2.12,3.32,4.78,5.07,7.71.88-.89,1.75-1.79,2.59-2.71-2.58-4.23-4.63-7.09-4.7-7.18C162.68,153,137.8,151.69,130.6,151.48Z"/>
        <path class="cls-3" d="M85.41,151.51v2.87h41.51v-2.94H88Z"/>
        <path class="cls-3"
              d="M88.07,155.12h40.86c.51,0,1.07,0,1.67,0v-3.68l-1.64,0h-2v2.94H85.41v-2.87c-1,0-2.26.1-3.68.18v3.69C84.23,155.22,86.42,155.14,88.07,155.12Z"/>
        <path class="cls-1"
              d="M42.38,103.3v-1.21a61,61,0,0,1,1.14-11.78,9.43,9.43,0,0,0-8.29,9.34v12.29a9.44,9.44,0,0,0,8.3,9.35C42.37,115.52,42.37,109.07,42.38,103.3Z"/>
        <path class="cls-1"
              d="M174.65,103.3c0,5.72,0,12.11-1.12,17.83a9.42,9.42,0,0,0,7.39-9.19V99.65a9.43,9.43,0,0,0-7.38-9.19,62,62,0,0,1,1.11,11.63Z"/>
        <path class="cls-1"
              d="M168.73,124.73a13.1,13.1,0,0,1-10.33-12.79V99.65a13.13,13.13,0,0,1,10.51-12.84c-7.06-25.65-31.46-44.63-60.4-44.63S55,61.26,48.06,87a13.11,13.11,0,0,1,9.69,12.63v12.29a13.12,13.12,0,0,1-9.53,12.59c1.24,3.48,3.17,6.33,6.21,8,6.55,3.6,16.31,6.34,27.92,8a1.82,1.82,0,0,1,1.22-.47h45.19a1.83,1.83,0,0,1,1.64,1c13.49-1.53,24.86-4.48,32.19-8.51C165.57,130.9,167.49,128.12,168.73,124.73Zm-17.14-3.66c-5.51,5.65-36.95,5.94-43.2,5.94s-37.69-.29-43.19-5.94c-4.19-4.29-5.45-13.44-5.26-20,.1-3.58.83-12.36,5.33-16.48,7.14-6.52,23.08-10.3,42.61-10.09,18.84.19,35.51,4,43.49,10,4.18,3.11,5.31,10,5.61,13.83C157.6,106.25,156,116.6,151.59,121.07Z"/>
        <path class="cls-1"
              d="M128.76,140H83.57a1.82,1.82,0,0,0-1.22.47,188.72,188.72,0,0,0,26.16,1.73,194.32,194.32,0,0,0,21.89-1.19A1.83,1.83,0,0,0,128.76,140Z"/>
        <path class="cls-1"
              d="M54.08,111.94V99.65a9.44,9.44,0,0,0-6.86-9.06,57.51,57.51,0,0,0-1.17,11.5v1.22c0,5.72,0,12.17,1.18,17.68A9.42,9.42,0,0,0,54.08,111.94Z"/>
        <path class="cls-1"
              d="M57.75,111.94V99.65A13.11,13.11,0,0,0,48.06,87q-.48,1.77-.84,3.57a9.44,9.44,0,0,1,6.86,9.06v12.29a9.42,9.42,0,0,1-6.85,9,28.62,28.62,0,0,0,1,3.54A13.12,13.12,0,0,0,57.75,111.94Z"/>
        <path class="cls-1"
              d="M162.08,99.65v12.29a9.42,9.42,0,0,0,7.67,9.25c1.24-5.56,1.23-12.1,1.23-17.88v-1.22a57.09,57.09,0,0,0-1.2-11.69A9.42,9.42,0,0,0,162.08,99.65Z"/>
        <path class="cls-1"
              d="M158.4,99.65v12.29a13.1,13.1,0,0,0,10.33,12.79,27,27,0,0,0,1-3.54,9.42,9.42,0,0,1-7.67-9.25V99.65a9.42,9.42,0,0,1,7.69-9.25c-.25-1.21-.54-2.41-.86-3.59A13.13,13.13,0,0,0,158.4,99.65Z"/>
        <path class="cls-3"
              d="M82.35,140.51c-11.61-1.63-21.37-4.37-27.92-8-3-1.68-5-4.53-6.21-8a13.09,13.09,0,0,1-3.56.51h-.17c1.47,4.55,4,8.41,8.17,10.73,7.11,3.91,17.42,6.68,29.07,8.33v-2.21A1.82,1.82,0,0,1,82.35,140.51Z"/>
        <path class="cls-3"
              d="M168.73,124.73c-1.24,3.39-3.16,6.17-6.14,7.81-7.33,4-18.7,7-32.19,8.51a1.92,1.92,0,0,1,.2.83v2.8c13.56-1.52,25.71-4.5,33.76-8.92,4.23-2.33,6.72-6.2,8.19-10.78-.35,0-.7.06-1.05.06A12.64,12.64,0,0,1,168.73,124.73Z"/>
        <path class="cls-3"
              d="M48.06,87c7-25.76,31.44-44.84,60.45-44.84s53.34,19,60.4,44.63a13.79,13.79,0,0,1,2.59-.25c.39,0,.78,0,1.16,0-7.2-27.6-33.23-48.1-64.15-48.1S51.6,59,44.37,86.57h.29A13.22,13.22,0,0,1,48.06,87Z"/>
        <path class="cls-3"
              d="M126.92,145.05v-1.34H85.41v.85a197.49,197.49,0,0,0,23.1,1.32C114.72,145.88,120.93,145.6,126.92,145.05Z"/>
        <path class="cls-3"
              d="M85.41,143.71h41.51v1.34c1.24-.11,2.47-.23,3.68-.37v-2.8a1.92,1.92,0,0,0-.2-.83,194.32,194.32,0,0,1-21.89,1.19,188.72,188.72,0,0,1-26.16-1.73,1.82,1.82,0,0,0-.62,1.37v2.21c1.21.17,2.44.32,3.68.47Z"/>
        <path class="cls-3"
              d="M46.05,103.31v-1.22a57.51,57.51,0,0,1,1.17-11.5,9.42,9.42,0,0,0-2.56-.36,8.5,8.5,0,0,0-1.14.08,61,61,0,0,0-1.14,11.78v1.21c0,5.77,0,12.22,1.15,18a10.39,10.39,0,0,0,1.13.07h0a9.12,9.12,0,0,0,2.57-.37C46,115.48,46.05,109,46.05,103.31Z"/>
        <path class="cls-3"
              d="M48.22,124.53a28.62,28.62,0,0,1-1-3.54,9.12,9.12,0,0,1-2.57.37h0a10.39,10.39,0,0,1-1.13-.07,34.7,34.7,0,0,0,1,3.74h.17A13.09,13.09,0,0,0,48.22,124.53Z"/>
        <path class="cls-3"
              d="M44.66,90.23a9.42,9.42,0,0,1,2.56.36q.36-1.8.84-3.57a13.22,13.22,0,0,0-3.4-.46h-.29c-.32,1.23-.6,2.48-.85,3.74A8.5,8.5,0,0,1,44.66,90.23Z"/>
        <path class="cls-3"
              d="M171,103.31c0,5.78,0,12.32-1.23,17.88a9.19,9.19,0,0,0,1.75.17,9.09,9.09,0,0,0,2-.23c1.13-5.72,1.13-12.11,1.12-17.83v-1.21a62,62,0,0,0-1.11-11.63,9.18,9.18,0,0,0-2-.23,9,9,0,0,0-1.73.17,57.09,57.09,0,0,1,1.2,11.69Z"/>
        <path class="cls-3"
              d="M168.91,86.81c.32,1.18.61,2.38.86,3.59a9,9,0,0,1,1.73-.17,9.18,9.18,0,0,1,2,.23c-.25-1.3-.55-2.58-.88-3.85-.38,0-.77,0-1.16,0A13.79,13.79,0,0,0,168.91,86.81Z"/>
        <path class="cls-3"
              d="M171.5,121.36a9.19,9.19,0,0,1-1.75-.17,27,27,0,0,1-1,3.54,12.64,12.64,0,0,0,2.77.31c.35,0,.7,0,1.05-.06a32.84,32.84,0,0,0,1-3.85A9.09,9.09,0,0,1,171.5,121.36Z"/>
        <path class="cls-4"
              d="M102.2,110.66a9.31,9.31,0,0,1,9.3,8.9c4.9-.6,8.63-2.59,11.11-6a16.49,16.49,0,0,0,3-8.37.58.58,0,0,0-.16-.44h0a.78.78,0,0,0-.57-.24H91.11a.76.76,0,0,0-.58.25.58.58,0,0,0-.15.45,16.75,16.75,0,0,0,3.23,8.36,13.76,13.76,0,0,0,.92,1.08A9.32,9.32,0,0,1,102.2,110.66Z"/>
        <path class="cls-5"
              d="M149.17,87.45c-15.07-11.24-67.09-13.21-81.42-.11-2.37,2.16-4,7.48-4.14,13.87-.21,7.42,1.52,14.53,4.22,17.3,2.28,2.34,17.27,4.82,40.56,4.82s38.29-2.48,40.57-4.82c3.07-3.16,5-11.89,4.35-19.88C152.88,93.17,151.37,89.1,149.17,87.45Zm-62.3,14.78a7.22,7.22,0,0,1-14.43,0V93.77a7.22,7.22,0,0,1,14.43,0Zm36.92,12.25c-3.3,4.48-8.55,6.75-15.61,6.75S95.84,119,92.44,114.52a18.5,18.5,0,0,1-3.53-9.12,2.09,2.09,0,0,1,.53-1.58,2.27,2.27,0,0,1,1.67-.73h33.78a2.26,2.26,0,0,1,1.65.71,2.05,2.05,0,0,1,.55,1.55A18,18,0,0,1,123.79,114.48Zm19.77-12.25a7.22,7.22,0,0,1-14.43,0V93.77a7.22,7.22,0,0,1,14.43,0Z"/>
        <path class="cls-3"
              d="M151.37,84.51c-8-6-24.65-9.79-43.49-10-19.53-.21-35.47,3.57-42.61,10.09-4.5,4.12-5.23,12.9-5.33,16.48-.19,6.53,1.07,15.68,5.26,20,5.5,5.65,37,5.94,43.19,5.94s37.69-.29,43.2-5.94c4.36-4.47,6-14.82,5.39-22.73C156.68,94.51,155.55,87.62,151.37,84.51Zm-2.41,34c-2.28,2.34-17.28,4.82-40.57,4.82s-38.28-2.48-40.56-4.82c-2.7-2.77-4.43-9.88-4.22-17.3.18-6.39,1.77-11.71,4.14-13.87,14.33-13.1,66.35-11.13,81.42.11,2.2,1.65,3.71,5.72,4.14,11.18C153.94,106.62,152,115.35,149,118.51Z"/>
        <path class="cls-3"
              d="M79.65,86.56a7.22,7.22,0,0,0-7.21,7.21v8.46a7.22,7.22,0,0,0,14.43,0V93.77A7.22,7.22,0,0,0,79.65,86.56Z"/>
        <path class="cls-3"
              d="M136.34,86.56a7.22,7.22,0,0,0-7.21,7.21v8.46a7.22,7.22,0,0,0,14.43,0V93.77A7.22,7.22,0,0,0,136.34,86.56Z"/>
        <path class="cls-1"
              d="M108.18,119.76a27,27,0,0,0,3.32-.2,9.31,9.31,0,0,0-17-4.86C97.65,118.06,102.23,119.76,108.18,119.76Z"/>
        <path class="cls-3"
              d="M124.89,104.05H91.11a1.51,1.51,0,0,0-1.12.49,1.27,1.27,0,0,0-.34,1A17.61,17.61,0,0,0,93,114.3c.32.41.67.81,1,1.19.15-.27.31-.53.49-.79a13.76,13.76,0,0,1-.92-1.08,16.75,16.75,0,0,1-3.23-8.36.58.58,0,0,1,.15-.45.76.76,0,0,1,.58-.25h33.78a.78.78,0,0,1,.57.24h0a.58.58,0,0,1,.16.44,16.49,16.49,0,0,1-3,8.37c-2.48,3.36-6.21,5.35-11.11,6,0,.14,0,.28,0,.42s0,.37,0,.55c5.16-.61,9.09-2.71,11.71-6.26a17.36,17.36,0,0,0,3.16-8.75,1.34,1.34,0,0,0-.36-1A1.55,1.55,0,0,0,124.89,104.05Z"/>
        <path class="cls-3"
              d="M124.89,103.09H91.11a2.27,2.27,0,0,0-1.67.73,2.09,2.09,0,0,0-.53,1.58,18.5,18.5,0,0,0,3.53,9.12c3.4,4.45,8.7,6.71,15.74,6.71s12.31-2.27,15.61-6.75a18,18,0,0,0,3.3-9.13,2.05,2.05,0,0,0-.55-1.55A2.26,2.26,0,0,0,124.89,103.09Zm-1.69,11.18c-2.62,3.55-6.55,5.65-11.71,6.26a29.06,29.06,0,0,1-3.31.19c-6.13,0-10.87-1.76-14.14-5.23-.35-.38-.7-.78-1-1.19a17.61,17.61,0,0,1-3.37-8.75,1.27,1.27,0,0,1,.34-1,1.51,1.51,0,0,1,1.12-.49h33.78a1.55,1.55,0,0,1,1.11.47,1.34,1.34,0,0,1,.36,1A17.36,17.36,0,0,1,123.2,114.27Z"/>
        <path class="cls-3"
              d="M111.5,119.56a27,27,0,0,1-3.32.2c-6,0-10.53-1.7-13.65-5.06-.18.26-.34.52-.49.79,3.27,3.47,8,5.23,14.14,5.23a29.06,29.06,0,0,0,3.31-.19c0-.18,0-.36,0-.55S111.51,119.7,111.5,119.56Z"/>
        <circle class="cls-1" cx="203" cy="108.73" r="3.39"/>
        <path class="cls-3"
              d="M203,101.67a7.07,7.07,0,0,0-6.82,5.23H184.59V99.65a13.11,13.11,0,0,0-11.93-13c.33,1.27.63,2.55.88,3.85a9.43,9.43,0,0,1,7.38,9.19v12.29a9.42,9.42,0,0,1-7.39,9.19,32.84,32.84,0,0,1-1,3.85,13.1,13.1,0,0,0,12-13v-1.37h11.59a7.06,7.06,0,1,0,6.82-8.9Zm0,10.45a3.39,3.39,0,1,1,3.39-3.39A3.39,3.39,0,0,1,203,112.12Z"/>
        <circle class="cls-1" cx="13" cy="108.73" r="3.39"/>
        <path class="cls-3"
              d="M43.53,121.29a9.44,9.44,0,0,1-8.3-9.35V99.65a9.43,9.43,0,0,1,8.29-9.34c.25-1.26.53-2.51.85-3.74A13.1,13.1,0,0,0,31.56,99.65v7.25H19.82a7.07,7.07,0,1,0,0,3.67H31.56v1.37A13.11,13.11,0,0,0,44.49,125,34.7,34.7,0,0,1,43.53,121.29ZM13,112.12a3.39,3.39,0,1,1,3.39-3.39A3.39,3.39,0,0,1,13,112.12Z"/>
    </g>
</svg>
