<svg id="Capa_1" data-name="Capa 1" xmlns="http://www.w3.org/2000/svg" viewBox="0 0 141.73 141.67">
    <defs>
        <style>.cls-1{fill:url(#Naranja_amarillo);}</style>
        <linearGradient id="Naranja_amarillo" x1="12.43" y1="70.84" x2="129.3" y2="70.84"
                        gradientUnits="userSpaceOnUse">
            <stop offset="0" stop-color="#ffed42"/>
            <stop offset="0.04" stop-color="#fee437"/>
            <stop offset="0.11" stop-color="#fdd424"/>
            <stop offset="0.19" stop-color="#fcca19"/>
            <stop offset="0.28" stop-color="#fcc715"/>
            <stop offset="0.67" stop-color="#ef8f40"/>
            <stop offset="0.89" stop-color="#e6603a"/>
            <stop offset="1" stop-color="#e03335"/>
        </linearGradient>
    </defs>
    <title>shotgot</title>
    <path id="_Trazado_compuesto_" data-name="&lt;Trazado compuesto&gt;" class="cls-1"
          d="M73.41,12.46c-.85,0-1.69-.06-2.55-.06a58.19,58.19,0,0,0-52.2,32.15h0l-.27.52a57.86,57.86,0,0,0-6,25.76A58.43,58.43,0,0,0,86.85,127h0A58.43,58.43,0,0,0,73.41,12.46Zm46.11,31.48L103.42,63.84l-10.8-19,0,0a1.66,1.66,0,0,0-.21-.43l-.11-.14L75.93,15.52A55.37,55.37,0,0,1,119.53,43.95ZM47.77,76.09,41,67.83l15.85,0L67.09,99.7Zm2.92-27.44L55.94,65l-15.38,0,6.66-10.71Zm40.86.16,8.78,15.43.48.84L86.06,65l.23-.67Zm-31,16.14L70,49.52l.89-1.45L81.47,65Zm6.73,2.94,14.78,0L70.7,101.5,59.9,67.87Zm17.83,0,11.32,0h3.67L74.33,99.76ZM88,50.22,83.68,63.1,73.38,46.64H89.24ZM58.32,63,53.08,46.64H68.37ZM70.87,15.28c.55,0,1.09,0,1.63,0l10,17.54,6.21,10.91H22.35A55.29,55.29,0,0,1,70.87,15.28ZM15.31,70.84a55,55,0,0,1,5.53-24.19h27.7l-11.8,19h0L19.85,92.81A55.24,55.24,0,0,1,15.31,70.84Zm6,25.09L38.13,68.86l31.28,38.23a1.49,1.49,0,0,0,.41.52l0,0,14.06,17.19A55.52,55.52,0,0,1,21.31,95.92ZM87,124,72.62,106.45,104,67.66a1.42,1.42,0,0,0,.38-.47L121,46.75A55.65,55.65,0,0,1,87,124Z"/>
</svg>